solid OpenSCAD_Model
  facet normal -1 0 0
    outer loop
      vertex 0 0 0
      vertex 0 42 6.8
      vertex 0 42 0
    endloop
  endfacet
  facet normal -1 -0 0
    outer loop
      vertex 0 42 6.8
      vertex 0 0 0
      vertex 0 0 6.8
    endloop
  endfacet
  facet normal 0 0 1
    outer loop
      vertex 3.65 42 6.8
      vertex 1 41 6.8
      vertex 3.65 41 6.8
    endloop
  endfacet
  facet normal 0 0 1
    outer loop
      vertex 1 41 6.8
      vertex 0 42 6.8
      vertex 1 1 6.8
    endloop
  endfacet
  facet normal -0 0 1
    outer loop
      vertex 0 42 6.8
      vertex 1 41 6.8
      vertex 3.65 42 6.8
    endloop
  endfacet
  facet normal -0 0 1
    outer loop
      vertex 1 1 6.8
      vertex 3.65 0 6.8
      vertex 3.65 1 6.8
    endloop
  endfacet
  facet normal 0 0 1
    outer loop
      vertex 1 1 6.8
      vertex 0 0 6.8
      vertex 3.65 0 6.8
    endloop
  endfacet
  facet normal 0 0 1
    outer loop
      vertex 0 0 6.8
      vertex 1 1 6.8
      vertex 0 42 6.8
    endloop
  endfacet
  facet normal 0 0 1
    outer loop
      vertex 50 42 6.8
      vertex 49 41 6.8
      vertex 50 0 6.8
    endloop
  endfacet
  facet normal -0 0 1
    outer loop
      vertex 16.35 42 6.8
      vertex 49 41 6.8
      vertex 50 42 6.8
    endloop
  endfacet
  facet normal 0 0 1
    outer loop
      vertex 49 41 6.8
      vertex 16.35 42 6.8
      vertex 16.35 41 6.8
    endloop
  endfacet
  facet normal -0 0 1
    outer loop
      vertex 49 1 6.8
      vertex 50 0 6.8
      vertex 49 41 6.8
    endloop
  endfacet
  facet normal 0 0 1
    outer loop
      vertex 16.35 0 6.8
      vertex 49 1 6.8
      vertex 16.35 1 6.8
    endloop
  endfacet
  facet normal 0 0 1
    outer loop
      vertex 49 1 6.8
      vertex 16.35 0 6.8
      vertex 50 0 6.8
    endloop
  endfacet
  facet normal 1 -0 0
    outer loop
      vertex 50 0 6.8
      vertex 50 42 0
      vertex 50 42 6.8
    endloop
  endfacet
  facet normal 1 0 0
    outer loop
      vertex 50 42 0
      vertex 50 0 6.8
      vertex 50 0 0
    endloop
  endfacet
  facet normal 0 1 0
    outer loop
      vertex 50 42 6.8
      vertex 16.35 42 1
      vertex 16.35 42 6.8
    endloop
  endfacet
  facet normal 0 1 0
    outer loop
      vertex 0 42 0
      vertex 16.35 42 1
      vertex 50 42 0
    endloop
  endfacet
  facet normal 0 1 -0
    outer loop
      vertex 50 42 0
      vertex 16.35 42 1
      vertex 50 42 6.8
    endloop
  endfacet
  facet normal 0 1 -0
    outer loop
      vertex 3.65 42 1
      vertex 0 42 6.8
      vertex 3.65 42 6.8
    endloop
  endfacet
  facet normal 0 1 0
    outer loop
      vertex 3.65 42 1
      vertex 0 42 0
      vertex 0 42 6.8
    endloop
  endfacet
  facet normal 0 1 0
    outer loop
      vertex 16.35 42 1
      vertex 0 42 0
      vertex 3.65 42 1
    endloop
  endfacet
  facet normal 0 0 -1
    outer loop
      vertex 0 0 0
      vertex 50 42 0
      vertex 50 0 0
    endloop
  endfacet
  facet normal -0 0 -1
    outer loop
      vertex 50 42 0
      vertex 0 0 0
      vertex 0 42 0
    endloop
  endfacet
  facet normal 0 -1 0
    outer loop
      vertex 0 0 6.8
      vertex 3.65 0 1
      vertex 3.65 0 6.8
    endloop
  endfacet
  facet normal 0 -1 -0
    outer loop
      vertex 3.65 0 1
      vertex 0 0 0
      vertex 16.35 0 1
    endloop
  endfacet
  facet normal 0 -1 0
    outer loop
      vertex 0 0 0
      vertex 3.65 0 1
      vertex 0 0 6.8
    endloop
  endfacet
  facet normal 0 -1 0
    outer loop
      vertex 16.35 0 1
      vertex 50 0 6.8
      vertex 16.35 0 6.8
    endloop
  endfacet
  facet normal 0 -1 0
    outer loop
      vertex 16.35 0 1
      vertex 50 0 0
      vertex 50 0 6.8
    endloop
  endfacet
  facet normal 0 -1 0
    outer loop
      vertex 50 0 0
      vertex 16.35 0 1
      vertex 0 0 0
    endloop
  endfacet
  facet normal 1 -0 0
    outer loop
      vertex 1 1 6.8
      vertex 1 41 1
      vertex 1 41 6.8
    endloop
  endfacet
  facet normal 1 0 0
    outer loop
      vertex 1 41 1
      vertex 1 1 6.8
      vertex 1 1 1
    endloop
  endfacet
  facet normal -1 0 0
    outer loop
      vertex 49 1 1
      vertex 49 41 6.8
      vertex 49 41 1
    endloop
  endfacet
  facet normal -1 -0 0
    outer loop
      vertex 49 41 6.8
      vertex 49 1 1
      vertex 49 1 6.8
    endloop
  endfacet
  facet normal 0 -1 0
    outer loop
      vertex 1 41 1
      vertex 3.65 41 6.8
      vertex 1 41 6.8
    endloop
  endfacet
  facet normal 0 -1 -0
    outer loop
      vertex 3.65 41 6.8
      vertex 1 41 1
      vertex 3.65 41 1
    endloop
  endfacet
  facet normal 0 -1 0
    outer loop
      vertex 16.35 41 1
      vertex 49 41 6.8
      vertex 16.35 41 6.8
    endloop
  endfacet
  facet normal 0 -1 -0
    outer loop
      vertex 49 41 6.8
      vertex 16.35 41 1
      vertex 49 41 1
    endloop
  endfacet
  facet normal -0 0 1
    outer loop
      vertex 1 41 1
      vertex 3.65 1 1
      vertex 3.65 41 1
    endloop
  endfacet
  facet normal 0 0 1
    outer loop
      vertex 3.65 1 1
      vertex 1 41 1
      vertex 1 1 1
    endloop
  endfacet
  facet normal 0 0 1
    outer loop
      vertex 3.65 41 1
      vertex 16.35 41 1
      vertex 16.35 42 1
    endloop
  endfacet
  facet normal 0 0 1
    outer loop
      vertex 16.35 41 1
      vertex 3.65 41 1
      vertex 16.35 1 1
    endloop
  endfacet
  facet normal 0 0 1
    outer loop
      vertex 3.65 41 1
      vertex 16.35 42 1
      vertex 3.65 42 1
    endloop
  endfacet
  facet normal 0 0 1
    outer loop
      vertex 3.65 1 1
      vertex 16.35 1 1
      vertex 3.65 41 1
    endloop
  endfacet
  facet normal 0 0 1
    outer loop
      vertex 16.35 1 1
      vertex 3.65 1 1
      vertex 16.35 0 1
    endloop
  endfacet
  facet normal 0 0 1
    outer loop
      vertex 16.35 0 1
      vertex 3.65 1 1
      vertex 3.65 0 1
    endloop
  endfacet
  facet normal -0 0 1
    outer loop
      vertex 16.35 41 1
      vertex 49 1 1
      vertex 49 41 1
    endloop
  endfacet
  facet normal 0 0 1
    outer loop
      vertex 49 1 1
      vertex 16.35 41 1
      vertex 16.35 1 1
    endloop
  endfacet
  facet normal 0 1 -0
    outer loop
      vertex 3.65 1 1
      vertex 1 1 6.8
      vertex 3.65 1 6.8
    endloop
  endfacet
  facet normal 0 1 0
    outer loop
      vertex 1 1 6.8
      vertex 3.65 1 1
      vertex 1 1 1
    endloop
  endfacet
  facet normal 0 1 -0
    outer loop
      vertex 49 1 1
      vertex 16.35 1 6.8
      vertex 49 1 6.8
    endloop
  endfacet
  facet normal 0 1 0
    outer loop
      vertex 16.35 1 6.8
      vertex 49 1 1
      vertex 16.35 1 1
    endloop
  endfacet
  facet normal 1 -0 0
    outer loop
      vertex 3.65 41 6.8
      vertex 3.65 42 1
      vertex 3.65 42 6.8
    endloop
  endfacet
  facet normal 1 0 0
    outer loop
      vertex 3.65 42 1
      vertex 3.65 41 6.8
      vertex 3.65 41 1
    endloop
  endfacet
  facet normal -1 0 0
    outer loop
      vertex 16.35 41 1
      vertex 16.35 42 6.8
      vertex 16.35 42 1
    endloop
  endfacet
  facet normal -1 -0 0
    outer loop
      vertex 16.35 42 6.8
      vertex 16.35 41 1
      vertex 16.35 41 6.8
    endloop
  endfacet
  facet normal 1 -0 0
    outer loop
      vertex 3.65 0 6.8
      vertex 3.65 1 1
      vertex 3.65 1 6.8
    endloop
  endfacet
  facet normal 1 0 0
    outer loop
      vertex 3.65 1 1
      vertex 3.65 0 6.8
      vertex 3.65 0 1
    endloop
  endfacet
  facet normal -1 0 0
    outer loop
      vertex 16.35 0 1
      vertex 16.35 1 6.8
      vertex 16.35 1 1
    endloop
  endfacet
  facet normal -1 -0 0
    outer loop
      vertex 16.35 1 6.8
      vertex 16.35 0 1
      vertex 16.35 0 6.8
    endloop
  endfacet
  facet normal 0.989477 0.142263 0.0263859
    outer loop
      vertex 17.4953 30.5803 1.2
      vertex 17.35 30.2 8.7
      vertex 17.55 30.2 1.2
    endloop
  endfacet
  facet normal 0.281637 -0.959158 0.0263859
    outer loop
      vertex 16.6777 29.1539 8.7
      vertex 16.3637 29.0617 8.7
      vertex 16.3921 28.8637 1.2
    endloop
  endfacet
  facet normal 0.755482 -0.654638 0.0263864
    outer loop
      vertex 17.1674 29.5783 8.7
      vertex 16.9531 29.3309 8.7
      vertex 17.0841 29.1797 1.2
    endloop
  endfacet
  facet normal -0.281633 0.959159 0.0263861
    outer loop
      vertex 16.0079 31.5363 1.2
      vertex 15.6392 31.428 1.2
      vertex 15.7223 31.2461 8.7
    endloop
  endfacet
  facet normal 0 0.999652 0.026386
    outer loop
      vertex 16.3921 31.5363 1.2
      vertex 16.0363 31.3383 8.7
      vertex 16.3637 31.3383 8.7
    endloop
  endfacet
  facet normal 0 0.999652 0.026386
    outer loop
      vertex 16.0363 31.3383 8.7
      vertex 16.3921 31.5363 1.2
      vertex 16.0079 31.5363 1.2
    endloop
  endfacet
  facet normal -0.540455 0.840959 0.0263863
    outer loop
      vertex 15.7223 31.2461 8.7
      vertex 15.3159 31.2203 1.2
      vertex 15.4469 31.0691 8.7
    endloop
  endfacet
  facet normal -0.989477 -0.142265 0.026386
    outer loop
      vertex 15.05 30.2 8.7
      vertex 14.85 30.2 1.2
      vertex 14.9047 29.8197 1.2
    endloop
  endfacet
  facet normal 0.989477 -0.142263 0.0263859
    outer loop
      vertex 17.55 30.2 1.2
      vertex 17.35 30.2 8.7
      vertex 17.4953 29.8197 1.2
    endloop
  endfacet
  facet normal -0.755488 0.654631 0.0263859
    outer loop
      vertex 15.3159 31.2203 1.2
      vertex 15.0643 30.9299 1.2
      vertex 15.2326 30.8217 8.7
    endloop
  endfacet
  facet normal 0.281637 0.959158 0.0263859
    outer loop
      vertex 16.3921 31.5363 1.2
      vertex 16.3637 31.3383 8.7
      vertex 16.6777 31.2461 8.7
    endloop
  endfacet
  facet normal -0.989477 0.142266 0.026386
    outer loop
      vertex 14.9047 30.5803 1.2
      vertex 14.85 30.2 1.2
      vertex 15.05 30.2 8.7
    endloop
  endfacet
  facet normal 0 0 -1
    outer loop
      vertex 17.4953 29.8197 1.2
      vertex 17.4953 30.5803 1.2
      vertex 17.55 30.2 1.2
    endloop
  endfacet
  facet normal 0 0 -1
    outer loop
      vertex 17.3357 29.4701 1.2
      vertex 17.4953 30.5803 1.2
      vertex 17.4953 29.8197 1.2
    endloop
  endfacet
  facet normal 0 0 -1
    outer loop
      vertex 17.3357 29.4701 1.2
      vertex 17.3357 30.9299 1.2
      vertex 17.4953 30.5803 1.2
    endloop
  endfacet
  facet normal 0 0 -1
    outer loop
      vertex 17.0841 29.1797 1.2
      vertex 17.3357 30.9299 1.2
      vertex 17.3357 29.4701 1.2
    endloop
  endfacet
  facet normal 0 0 -1
    outer loop
      vertex 17.0841 29.1797 1.2
      vertex 17.0841 31.2203 1.2
      vertex 17.3357 30.9299 1.2
    endloop
  endfacet
  facet normal 0 0 -1
    outer loop
      vertex 16.7608 28.972 1.2
      vertex 17.0841 31.2203 1.2
      vertex 17.0841 29.1797 1.2
    endloop
  endfacet
  facet normal 0 0 -1
    outer loop
      vertex 16.7608 28.972 1.2
      vertex 16.7608 31.428 1.2
      vertex 17.0841 31.2203 1.2
    endloop
  endfacet
  facet normal 0 0 -1
    outer loop
      vertex 16.3921 28.8637 1.2
      vertex 16.7608 31.428 1.2
      vertex 16.7608 28.972 1.2
    endloop
  endfacet
  facet normal 0 0 -1
    outer loop
      vertex 16.3921 28.8637 1.2
      vertex 16.3921 31.5363 1.2
      vertex 16.7608 31.428 1.2
    endloop
  endfacet
  facet normal 0 0 -1
    outer loop
      vertex 16.0079 28.8637 1.2
      vertex 16.3921 31.5363 1.2
      vertex 16.3921 28.8637 1.2
    endloop
  endfacet
  facet normal 0 0 -1
    outer loop
      vertex 16.0079 28.8637 1.2
      vertex 16.0079 31.5363 1.2
      vertex 16.3921 31.5363 1.2
    endloop
  endfacet
  facet normal 0 0 -1
    outer loop
      vertex 15.6392 28.972 1.2
      vertex 16.0079 31.5363 1.2
      vertex 16.0079 28.8637 1.2
    endloop
  endfacet
  facet normal 0 0 -1
    outer loop
      vertex 15.6392 28.972 1.2
      vertex 15.6392 31.428 1.2
      vertex 16.0079 31.5363 1.2
    endloop
  endfacet
  facet normal 0 0 -1
    outer loop
      vertex 15.3159 29.1797 1.2
      vertex 15.6392 31.428 1.2
      vertex 15.6392 28.972 1.2
    endloop
  endfacet
  facet normal 0 0 -1
    outer loop
      vertex 15.3159 29.1797 1.2
      vertex 15.3159 31.2203 1.2
      vertex 15.6392 31.428 1.2
    endloop
  endfacet
  facet normal 0 0 -1
    outer loop
      vertex 15.0643 29.4701 1.2
      vertex 15.3159 31.2203 1.2
      vertex 15.3159 29.1797 1.2
    endloop
  endfacet
  facet normal 0 0 -1
    outer loop
      vertex 15.0643 29.4701 1.2
      vertex 15.0643 30.9299 1.2
      vertex 15.3159 31.2203 1.2
    endloop
  endfacet
  facet normal 0 0 -1
    outer loop
      vertex 14.9047 29.8197 1.2
      vertex 15.0643 30.9299 1.2
      vertex 15.0643 29.4701 1.2
    endloop
  endfacet
  facet normal 0 0 -1
    outer loop
      vertex 14.9047 29.8197 1.2
      vertex 14.9047 30.5803 1.2
      vertex 15.0643 30.9299 1.2
    endloop
  endfacet
  facet normal 0 -0 -1
    outer loop
      vertex 14.9047 30.5803 1.2
      vertex 14.9047 29.8197 1.2
      vertex 14.85 30.2 1.2
    endloop
  endfacet
  facet normal -0.540452 -0.840961 0.0263861
    outer loop
      vertex 15.7223 29.1539 8.7
      vertex 15.3159 29.1797 1.2
      vertex 15.6392 28.972 1.2
    endloop
  endfacet
  facet normal -0.909316 -0.415269 0.026386
    outer loop
      vertex 15.0966 29.876 8.7
      vertex 14.9047 29.8197 1.2
      vertex 15.2326 29.5783 8.7
    endloop
  endfacet
  facet normal -0.281636 -0.959158 0.0263859
    outer loop
      vertex 16.0363 29.0617 8.7
      vertex 15.7223 29.1539 8.7
      vertex 16.0079 28.8637 1.2
    endloop
  endfacet
  facet normal 0 -0.999652 0.026386
    outer loop
      vertex 16.0079 28.8637 1.2
      vertex 16.3637 29.0617 8.7
      vertex 16.0363 29.0617 8.7
    endloop
  endfacet
  facet normal 0 -0.999652 0.026386
    outer loop
      vertex 16.3637 29.0617 8.7
      vertex 16.0079 28.8637 1.2
      vertex 16.3921 28.8637 1.2
    endloop
  endfacet
  facet normal 0.540452 -0.840961 0.0263862
    outer loop
      vertex 17.0841 29.1797 1.2
      vertex 16.6777 29.1539 8.7
      vertex 16.7608 28.972 1.2
    endloop
  endfacet
  facet normal 0.281633 -0.959159 0.0263861
    outer loop
      vertex 16.6777 29.1539 8.7
      vertex 16.3921 28.8637 1.2
      vertex 16.7608 28.972 1.2
    endloop
  endfacet
  facet normal -0.540452 0.840961 0.0263861
    outer loop
      vertex 15.6392 31.428 1.2
      vertex 15.3159 31.2203 1.2
      vertex 15.7223 31.2461 8.7
    endloop
  endfacet
  facet normal 0.540452 0.840961 0.0263862
    outer loop
      vertex 16.7608 31.428 1.2
      vertex 16.6777 31.2461 8.7
      vertex 17.0841 31.2203 1.2
    endloop
  endfacet
  facet normal 0.909316 0.415269 0.026386
    outer loop
      vertex 17.4953 30.5803 1.2
      vertex 17.1674 30.8217 8.7
      vertex 17.3034 30.524 8.7
    endloop
  endfacet
  facet normal -0.281636 0.959158 0.0263859
    outer loop
      vertex 16.0079 31.5363 1.2
      vertex 15.7223 31.2461 8.7
      vertex 16.0363 31.3383 8.7
    endloop
  endfacet
  facet normal -0.755483 0.654637 0.0263863
    outer loop
      vertex 15.3159 31.2203 1.2
      vertex 15.2326 30.8217 8.7
      vertex 15.4469 31.0691 8.7
    endloop
  endfacet
  facet normal 0 0 1
    outer loop
      vertex 17.3034 30.524 8.7
      vertex 17.3034 29.876 8.7
      vertex 17.35 30.2 8.7
    endloop
  endfacet
  facet normal 0 0 1
    outer loop
      vertex 17.1674 30.8217 8.7
      vertex 17.3034 29.876 8.7
      vertex 17.3034 30.524 8.7
    endloop
  endfacet
  facet normal 0 0 1
    outer loop
      vertex 17.1674 30.8217 8.7
      vertex 17.1674 29.5783 8.7
      vertex 17.3034 29.876 8.7
    endloop
  endfacet
  facet normal 0 0 1
    outer loop
      vertex 16.9531 31.0691 8.7
      vertex 17.1674 29.5783 8.7
      vertex 17.1674 30.8217 8.7
    endloop
  endfacet
  facet normal 0 0 1
    outer loop
      vertex 16.9531 31.0691 8.7
      vertex 16.9531 29.3309 8.7
      vertex 17.1674 29.5783 8.7
    endloop
  endfacet
  facet normal 0 0 1
    outer loop
      vertex 16.6777 31.2461 8.7
      vertex 16.9531 29.3309 8.7
      vertex 16.9531 31.0691 8.7
    endloop
  endfacet
  facet normal 0 0 1
    outer loop
      vertex 16.6777 31.2461 8.7
      vertex 16.6777 29.1539 8.7
      vertex 16.9531 29.3309 8.7
    endloop
  endfacet
  facet normal 0 0 1
    outer loop
      vertex 16.3637 31.3383 8.7
      vertex 16.6777 29.1539 8.7
      vertex 16.6777 31.2461 8.7
    endloop
  endfacet
  facet normal 0 0 1
    outer loop
      vertex 16.3637 31.3383 8.7
      vertex 16.3637 29.0617 8.7
      vertex 16.6777 29.1539 8.7
    endloop
  endfacet
  facet normal -0 0 1
    outer loop
      vertex 16.0363 31.3383 8.7
      vertex 16.3637 29.0617 8.7
      vertex 16.3637 31.3383 8.7
    endloop
  endfacet
  facet normal 0 0 1
    outer loop
      vertex 16.0363 31.3383 8.7
      vertex 16.0363 29.0617 8.7
      vertex 16.3637 29.0617 8.7
    endloop
  endfacet
  facet normal -0 0 1
    outer loop
      vertex 15.7223 31.2461 8.7
      vertex 16.0363 29.0617 8.7
      vertex 16.0363 31.3383 8.7
    endloop
  endfacet
  facet normal 0 0 1
    outer loop
      vertex 15.7223 31.2461 8.7
      vertex 15.7223 29.1539 8.7
      vertex 16.0363 29.0617 8.7
    endloop
  endfacet
  facet normal -0 0 1
    outer loop
      vertex 15.4469 31.0691 8.7
      vertex 15.7223 29.1539 8.7
      vertex 15.7223 31.2461 8.7
    endloop
  endfacet
  facet normal 0 0 1
    outer loop
      vertex 15.4469 31.0691 8.7
      vertex 15.4469 29.3309 8.7
      vertex 15.7223 29.1539 8.7
    endloop
  endfacet
  facet normal -0 0 1
    outer loop
      vertex 15.2326 30.8217 8.7
      vertex 15.4469 29.3309 8.7
      vertex 15.4469 31.0691 8.7
    endloop
  endfacet
  facet normal 0 0 1
    outer loop
      vertex 15.2326 30.8217 8.7
      vertex 15.2326 29.5783 8.7
      vertex 15.4469 29.3309 8.7
    endloop
  endfacet
  facet normal -0 0 1
    outer loop
      vertex 15.0966 30.524 8.7
      vertex 15.2326 29.5783 8.7
      vertex 15.2326 30.8217 8.7
    endloop
  endfacet
  facet normal 0 0 1
    outer loop
      vertex 15.0966 30.524 8.7
      vertex 15.0966 29.876 8.7
      vertex 15.2326 29.5783 8.7
    endloop
  endfacet
  facet normal 0 -0 1
    outer loop
      vertex 15.0966 29.876 8.7
      vertex 15.0966 30.524 8.7
      vertex 15.05 30.2 8.7
    endloop
  endfacet
  facet normal -0.909315 0.415271 0.0263859
    outer loop
      vertex 15.0643 30.9299 1.2
      vertex 14.9047 30.5803 1.2
      vertex 15.2326 30.8217 8.7
    endloop
  endfacet
  facet normal -0.281633 -0.959159 0.0263861
    outer loop
      vertex 15.7223 29.1539 8.7
      vertex 15.6392 28.972 1.2
      vertex 16.0079 28.8637 1.2
    endloop
  endfacet
  facet normal -0.755488 -0.654631 0.0263859
    outer loop
      vertex 15.2326 29.5783 8.7
      vertex 15.0643 29.4701 1.2
      vertex 15.3159 29.1797 1.2
    endloop
  endfacet
  facet normal -0.909315 -0.415271 0.0263859
    outer loop
      vertex 15.2326 29.5783 8.7
      vertex 14.9047 29.8197 1.2
      vertex 15.0643 29.4701 1.2
    endloop
  endfacet
  facet normal -0.755483 -0.654637 0.0263863
    outer loop
      vertex 15.4469 29.3309 8.7
      vertex 15.2326 29.5783 8.7
      vertex 15.3159 29.1797 1.2
    endloop
  endfacet
  facet normal -0.540455 -0.840959 0.0263863
    outer loop
      vertex 15.4469 29.3309 8.7
      vertex 15.3159 29.1797 1.2
      vertex 15.7223 29.1539 8.7
    endloop
  endfacet
  facet normal -0.989477 -0.142265 0.026386
    outer loop
      vertex 15.05 30.2 8.7
      vertex 14.9047 29.8197 1.2
      vertex 15.0966 29.876 8.7
    endloop
  endfacet
  facet normal 0.540455 -0.840959 0.0263864
    outer loop
      vertex 16.9531 29.3309 8.7
      vertex 16.6777 29.1539 8.7
      vertex 17.0841 29.1797 1.2
    endloop
  endfacet
  facet normal 0.909314 -0.415273 0.0263858
    outer loop
      vertex 17.4953 29.8197 1.2
      vertex 17.1674 29.5783 8.7
      vertex 17.3357 29.4701 1.2
    endloop
  endfacet
  facet normal 0.755489 -0.65463 0.0263859
    outer loop
      vertex 17.1674 29.5783 8.7
      vertex 17.0841 29.1797 1.2
      vertex 17.3357 29.4701 1.2
    endloop
  endfacet
  facet normal 0.909316 -0.415269 0.026386
    outer loop
      vertex 17.3034 29.876 8.7
      vertex 17.1674 29.5783 8.7
      vertex 17.4953 29.8197 1.2
    endloop
  endfacet
  facet normal 0.989477 -0.142265 0.026386
    outer loop
      vertex 17.35 30.2 8.7
      vertex 17.3034 29.876 8.7
      vertex 17.4953 29.8197 1.2
    endloop
  endfacet
  facet normal 0.281633 0.959159 0.0263861
    outer loop
      vertex 16.7608 31.428 1.2
      vertex 16.3921 31.5363 1.2
      vertex 16.6777 31.2461 8.7
    endloop
  endfacet
  facet normal 0.755489 0.65463 0.0263859
    outer loop
      vertex 17.3357 30.9299 1.2
      vertex 17.0841 31.2203 1.2
      vertex 17.1674 30.8217 8.7
    endloop
  endfacet
  facet normal 0.909314 0.415273 0.0263858
    outer loop
      vertex 17.3357 30.9299 1.2
      vertex 17.1674 30.8217 8.7
      vertex 17.4953 30.5803 1.2
    endloop
  endfacet
  facet normal 0.755482 0.654638 0.0263864
    outer loop
      vertex 17.0841 31.2203 1.2
      vertex 16.9531 31.0691 8.7
      vertex 17.1674 30.8217 8.7
    endloop
  endfacet
  facet normal 0.540455 0.840959 0.0263864
    outer loop
      vertex 17.0841 31.2203 1.2
      vertex 16.6777 31.2461 8.7
      vertex 16.9531 31.0691 8.7
    endloop
  endfacet
  facet normal 0.989477 0.142266 0.026386
    outer loop
      vertex 17.4953 30.5803 1.2
      vertex 17.3034 30.524 8.7
      vertex 17.35 30.2 8.7
    endloop
  endfacet
  facet normal -0.909316 0.415269 0.026386
    outer loop
      vertex 15.2326 30.8217 8.7
      vertex 14.9047 30.5803 1.2
      vertex 15.0966 30.524 8.7
    endloop
  endfacet
  facet normal -0.989477 0.142266 0.026386
    outer loop
      vertex 15.0966 30.524 8.7
      vertex 14.9047 30.5803 1.2
      vertex 15.05 30.2 8.7
    endloop
  endfacet
  facet normal 0.989477 0.142264 0.0263862
    outer loop
      vertex 39.4953 37.5803 1.2
      vertex 39.35 37.2 8.7
      vertex 39.55 37.2 1.2
    endloop
  endfacet
  facet normal 0.281632 -0.95916 0.0263864
    outer loop
      vertex 38.6777 36.1539 8.7
      vertex 38.3637 36.0617 8.7
      vertex 38.3921 35.8637 1.2
    endloop
  endfacet
  facet normal 0.755487 -0.654632 0.0263858
    outer loop
      vertex 39.1674 36.5783 8.7
      vertex 38.9531 36.3309 8.7
      vertex 39.0841 36.1797 1.2
    endloop
  endfacet
  facet normal -0.28164 0.959157 0.0263855
    outer loop
      vertex 38.0079 38.5363 1.2
      vertex 37.6392 38.428 1.2
      vertex 37.7223 38.2461 8.7
    endloop
  endfacet
  facet normal 0 0.999652 0.026386
    outer loop
      vertex 38.3921 38.5363 1.2
      vertex 38.0363 38.3383 8.7
      vertex 38.3637 38.3383 8.7
    endloop
  endfacet
  facet normal 0 0.999652 0.026386
    outer loop
      vertex 38.0363 38.3383 8.7
      vertex 38.3921 38.5363 1.2
      vertex 38.0079 38.5363 1.2
    endloop
  endfacet
  facet normal -0.540462 0.840954 0.0263862
    outer loop
      vertex 37.7223 38.2461 8.7
      vertex 37.3159 38.2203 1.2
      vertex 37.4469 38.0691 8.7
    endloop
  endfacet
  facet normal -0.989476 -0.142272 0.0263861
    outer loop
      vertex 37.05 37.2 8.7
      vertex 36.85 37.2 1.2
      vertex 36.9047 36.8197 1.2
    endloop
  endfacet
  facet normal 0.989477 -0.142263 0.0263862
    outer loop
      vertex 39.55 37.2 1.2
      vertex 39.35 37.2 8.7
      vertex 39.4953 36.8197 1.2
    endloop
  endfacet
  facet normal -0.755485 0.654634 0.0263864
    outer loop
      vertex 37.3159 38.2203 1.2
      vertex 37.0643 37.9299 1.2
      vertex 37.2326 37.8217 8.7
    endloop
  endfacet
  facet normal 0.281632 0.95916 0.0263859
    outer loop
      vertex 38.3921 38.5363 1.2
      vertex 38.3637 38.3383 8.7
      vertex 38.6777 38.2461 8.7
    endloop
  endfacet
  facet normal -0.989476 0.142274 0.0263861
    outer loop
      vertex 36.9047 37.5803 1.2
      vertex 36.85 37.2 1.2
      vertex 37.05 37.2 8.7
    endloop
  endfacet
  facet normal 0 0 -1
    outer loop
      vertex 39.4953 36.8197 1.2
      vertex 39.4953 37.5803 1.2
      vertex 39.55 37.2 1.2
    endloop
  endfacet
  facet normal 0 0 -1
    outer loop
      vertex 39.3357 36.4701 1.2
      vertex 39.4953 37.5803 1.2
      vertex 39.4953 36.8197 1.2
    endloop
  endfacet
  facet normal 0 0 -1
    outer loop
      vertex 39.3357 36.4701 1.2
      vertex 39.3357 37.9299 1.2
      vertex 39.4953 37.5803 1.2
    endloop
  endfacet
  facet normal 0 0 -1
    outer loop
      vertex 39.0841 36.1797 1.2
      vertex 39.3357 37.9299 1.2
      vertex 39.3357 36.4701 1.2
    endloop
  endfacet
  facet normal 0 0 -1
    outer loop
      vertex 39.0841 36.1797 1.2
      vertex 39.0841 38.2203 1.2
      vertex 39.3357 37.9299 1.2
    endloop
  endfacet
  facet normal 0 0 -1
    outer loop
      vertex 38.7608 35.972 1.2
      vertex 39.0841 38.2203 1.2
      vertex 39.0841 36.1797 1.2
    endloop
  endfacet
  facet normal 0 0 -1
    outer loop
      vertex 38.7608 35.972 1.2
      vertex 38.7608 38.428 1.2
      vertex 39.0841 38.2203 1.2
    endloop
  endfacet
  facet normal 0 0 -1
    outer loop
      vertex 38.3921 35.8637 1.2
      vertex 38.7608 38.428 1.2
      vertex 38.7608 35.972 1.2
    endloop
  endfacet
  facet normal 0 0 -1
    outer loop
      vertex 38.3921 35.8637 1.2
      vertex 38.3921 38.5363 1.2
      vertex 38.7608 38.428 1.2
    endloop
  endfacet
  facet normal 0 0 -1
    outer loop
      vertex 38.0079 35.8637 1.2
      vertex 38.3921 38.5363 1.2
      vertex 38.3921 35.8637 1.2
    endloop
  endfacet
  facet normal 0 0 -1
    outer loop
      vertex 38.0079 35.8637 1.2
      vertex 38.0079 38.5363 1.2
      vertex 38.3921 38.5363 1.2
    endloop
  endfacet
  facet normal 0 0 -1
    outer loop
      vertex 37.6392 35.972 1.2
      vertex 38.0079 38.5363 1.2
      vertex 38.0079 35.8637 1.2
    endloop
  endfacet
  facet normal 0 0 -1
    outer loop
      vertex 37.6392 35.972 1.2
      vertex 37.6392 38.428 1.2
      vertex 38.0079 38.5363 1.2
    endloop
  endfacet
  facet normal 0 0 -1
    outer loop
      vertex 37.3159 36.1797 1.2
      vertex 37.6392 38.428 1.2
      vertex 37.6392 35.972 1.2
    endloop
  endfacet
  facet normal 0 0 -1
    outer loop
      vertex 37.3159 36.1797 1.2
      vertex 37.3159 38.2203 1.2
      vertex 37.6392 38.428 1.2
    endloop
  endfacet
  facet normal 0 0 -1
    outer loop
      vertex 37.0643 36.4701 1.2
      vertex 37.3159 38.2203 1.2
      vertex 37.3159 36.1797 1.2
    endloop
  endfacet
  facet normal 0 0 -1
    outer loop
      vertex 37.0643 36.4701 1.2
      vertex 37.0643 37.9299 1.2
      vertex 37.3159 38.2203 1.2
    endloop
  endfacet
  facet normal 0 0 -1
    outer loop
      vertex 36.9047 36.8197 1.2
      vertex 37.0643 37.9299 1.2
      vertex 37.0643 36.4701 1.2
    endloop
  endfacet
  facet normal 0 0 -1
    outer loop
      vertex 36.9047 36.8197 1.2
      vertex 36.9047 37.5803 1.2
      vertex 37.0643 37.9299 1.2
    endloop
  endfacet
  facet normal 0 -0 -1
    outer loop
      vertex 36.9047 37.5803 1.2
      vertex 36.9047 36.8197 1.2
      vertex 36.85 37.2 1.2
    endloop
  endfacet
  facet normal -0.540449 -0.840963 0.0263859
    outer loop
      vertex 37.7223 36.1539 8.7
      vertex 37.3159 36.1797 1.2
      vertex 37.6392 35.972 1.2
    endloop
  endfacet
  facet normal -0.909316 -0.415269 0.026386
    outer loop
      vertex 37.0966 36.876 8.7
      vertex 36.9047 36.8197 1.2
      vertex 37.2326 36.5783 8.7
    endloop
  endfacet
  facet normal -0.281628 -0.959161 0.0263866
    outer loop
      vertex 38.0363 36.0617 8.7
      vertex 37.7223 36.1539 8.7
      vertex 38.0079 35.8637 1.2
    endloop
  endfacet
  facet normal 0 -0.999652 0.0263865
    outer loop
      vertex 38.0079 35.8637 1.2
      vertex 38.3637 36.0617 8.7
      vertex 38.0363 36.0617 8.7
    endloop
  endfacet
  facet normal 0 -0.999652 0.0263865
    outer loop
      vertex 38.3637 36.0617 8.7
      vertex 38.0079 35.8637 1.2
      vertex 38.3921 35.8637 1.2
    endloop
  endfacet
  facet normal 0.540454 -0.84096 0.0263862
    outer loop
      vertex 39.0841 36.1797 1.2
      vertex 38.6777 36.1539 8.7
      vertex 38.7608 35.972 1.2
    endloop
  endfacet
  facet normal 0.281637 -0.959158 0.0263861
    outer loop
      vertex 38.6777 36.1539 8.7
      vertex 38.3921 35.8637 1.2
      vertex 38.7608 35.972 1.2
    endloop
  endfacet
  facet normal -0.540449 0.840963 0.0263855
    outer loop
      vertex 37.6392 38.428 1.2
      vertex 37.3159 38.2203 1.2
      vertex 37.7223 38.2461 8.7
    endloop
  endfacet
  facet normal 0.540454 0.84096 0.0263857
    outer loop
      vertex 38.7608 38.428 1.2
      vertex 38.6777 38.2461 8.7
      vertex 39.0841 38.2203 1.2
    endloop
  endfacet
  facet normal 0.909316 0.415269 0.026386
    outer loop
      vertex 39.4953 37.5803 1.2
      vertex 39.1674 37.8217 8.7
      vertex 39.3034 37.524 8.7
    endloop
  endfacet
  facet normal -0.281628 0.959161 0.0263861
    outer loop
      vertex 38.0079 38.5363 1.2
      vertex 37.7223 38.2461 8.7
      vertex 38.0363 38.3383 8.7
    endloop
  endfacet
  facet normal -0.755487 0.654632 0.0263862
    outer loop
      vertex 37.3159 38.2203 1.2
      vertex 37.2326 37.8217 8.7
      vertex 37.4469 38.0691 8.7
    endloop
  endfacet
  facet normal 0 0 1
    outer loop
      vertex 39.3034 37.524 8.7
      vertex 39.3034 36.876 8.7
      vertex 39.35 37.2 8.7
    endloop
  endfacet
  facet normal 0 0 1
    outer loop
      vertex 39.1674 37.8217 8.7
      vertex 39.3034 36.876 8.7
      vertex 39.3034 37.524 8.7
    endloop
  endfacet
  facet normal 0 0 1
    outer loop
      vertex 39.1674 37.8217 8.7
      vertex 39.1674 36.5783 8.7
      vertex 39.3034 36.876 8.7
    endloop
  endfacet
  facet normal 0 0 1
    outer loop
      vertex 38.9531 38.0691 8.7
      vertex 39.1674 36.5783 8.7
      vertex 39.1674 37.8217 8.7
    endloop
  endfacet
  facet normal 0 0 1
    outer loop
      vertex 38.9531 38.0691 8.7
      vertex 38.9531 36.3309 8.7
      vertex 39.1674 36.5783 8.7
    endloop
  endfacet
  facet normal 0 0 1
    outer loop
      vertex 38.6777 38.2461 8.7
      vertex 38.9531 36.3309 8.7
      vertex 38.9531 38.0691 8.7
    endloop
  endfacet
  facet normal 0 0 1
    outer loop
      vertex 38.6777 38.2461 8.7
      vertex 38.6777 36.1539 8.7
      vertex 38.9531 36.3309 8.7
    endloop
  endfacet
  facet normal 0 0 1
    outer loop
      vertex 38.3637 38.3383 8.7
      vertex 38.6777 36.1539 8.7
      vertex 38.6777 38.2461 8.7
    endloop
  endfacet
  facet normal 0 0 1
    outer loop
      vertex 38.3637 38.3383 8.7
      vertex 38.3637 36.0617 8.7
      vertex 38.6777 36.1539 8.7
    endloop
  endfacet
  facet normal -0 0 1
    outer loop
      vertex 38.0363 38.3383 8.7
      vertex 38.3637 36.0617 8.7
      vertex 38.3637 38.3383 8.7
    endloop
  endfacet
  facet normal 0 0 1
    outer loop
      vertex 38.0363 38.3383 8.7
      vertex 38.0363 36.0617 8.7
      vertex 38.3637 36.0617 8.7
    endloop
  endfacet
  facet normal -0 0 1
    outer loop
      vertex 37.7223 38.2461 8.7
      vertex 38.0363 36.0617 8.7
      vertex 38.0363 38.3383 8.7
    endloop
  endfacet
  facet normal 0 0 1
    outer loop
      vertex 37.7223 38.2461 8.7
      vertex 37.7223 36.1539 8.7
      vertex 38.0363 36.0617 8.7
    endloop
  endfacet
  facet normal -0 0 1
    outer loop
      vertex 37.4469 38.0691 8.7
      vertex 37.7223 36.1539 8.7
      vertex 37.7223 38.2461 8.7
    endloop
  endfacet
  facet normal 0 0 1
    outer loop
      vertex 37.4469 38.0691 8.7
      vertex 37.4469 36.3309 8.7
      vertex 37.7223 36.1539 8.7
    endloop
  endfacet
  facet normal -0 0 1
    outer loop
      vertex 37.2326 37.8217 8.7
      vertex 37.4469 36.3309 8.7
      vertex 37.4469 38.0691 8.7
    endloop
  endfacet
  facet normal 0 0 1
    outer loop
      vertex 37.2326 37.8217 8.7
      vertex 37.2326 36.5783 8.7
      vertex 37.4469 36.3309 8.7
    endloop
  endfacet
  facet normal -0 0 1
    outer loop
      vertex 37.0966 37.524 8.7
      vertex 37.2326 36.5783 8.7
      vertex 37.2326 37.8217 8.7
    endloop
  endfacet
  facet normal 0 0 1
    outer loop
      vertex 37.0966 37.524 8.7
      vertex 37.0966 36.876 8.7
      vertex 37.2326 36.5783 8.7
    endloop
  endfacet
  facet normal 0 -0 1
    outer loop
      vertex 37.0966 36.876 8.7
      vertex 37.0966 37.524 8.7
      vertex 37.05 37.2 8.7
    endloop
  endfacet
  facet normal -0.909318 0.415265 0.0263862
    outer loop
      vertex 37.0643 37.9299 1.2
      vertex 36.9047 37.5803 1.2
      vertex 37.2326 37.8217 8.7
    endloop
  endfacet
  facet normal -0.28164 -0.959157 0.026386
    outer loop
      vertex 37.7223 36.1539 8.7
      vertex 37.6392 35.972 1.2
      vertex 38.0079 35.8637 1.2
    endloop
  endfacet
  facet normal -0.755489 -0.65463 0.026386
    outer loop
      vertex 37.2326 36.5783 8.7
      vertex 37.0643 36.4701 1.2
      vertex 37.3159 36.1797 1.2
    endloop
  endfacet
  facet normal -0.909316 -0.415269 0.0263861
    outer loop
      vertex 37.2326 36.5783 8.7
      vertex 36.9047 36.8197 1.2
      vertex 37.0643 36.4701 1.2
    endloop
  endfacet
  facet normal -0.755487 -0.654632 0.0263862
    outer loop
      vertex 37.4469 36.3309 8.7
      vertex 37.2326 36.5783 8.7
      vertex 37.3159 36.1797 1.2
    endloop
  endfacet
  facet normal -0.540454 -0.84096 0.0263862
    outer loop
      vertex 37.4469 36.3309 8.7
      vertex 37.3159 36.1797 1.2
      vertex 37.7223 36.1539 8.7
    endloop
  endfacet
  facet normal -0.989476 -0.142271 0.026386
    outer loop
      vertex 37.05 37.2 8.7
      vertex 36.9047 36.8197 1.2
      vertex 37.0966 36.876 8.7
    endloop
  endfacet
  facet normal 0.540449 -0.840963 0.0263859
    outer loop
      vertex 38.9531 36.3309 8.7
      vertex 38.6777 36.1539 8.7
      vertex 39.0841 36.1797 1.2
    endloop
  endfacet
  facet normal 0.909316 -0.415269 0.0263861
    outer loop
      vertex 39.4953 36.8197 1.2
      vertex 39.1674 36.5783 8.7
      vertex 39.3357 36.4701 1.2
    endloop
  endfacet
  facet normal 0.755484 -0.654635 0.026386
    outer loop
      vertex 39.1674 36.5783 8.7
      vertex 39.0841 36.1797 1.2
      vertex 39.3357 36.4701 1.2
    endloop
  endfacet
  facet normal 0.909316 -0.415269 0.026386
    outer loop
      vertex 39.3034 36.876 8.7
      vertex 39.1674 36.5783 8.7
      vertex 39.4953 36.8197 1.2
    endloop
  endfacet
  facet normal 0.989478 -0.142259 0.026386
    outer loop
      vertex 39.35 37.2 8.7
      vertex 39.3034 36.876 8.7
      vertex 39.4953 36.8197 1.2
    endloop
  endfacet
  facet normal 0.281637 0.959158 0.0263857
    outer loop
      vertex 38.7608 38.428 1.2
      vertex 38.3921 38.5363 1.2
      vertex 38.6777 38.2461 8.7
    endloop
  endfacet
  facet normal 0.75548 0.65464 0.0263863
    outer loop
      vertex 39.3357 37.9299 1.2
      vertex 39.0841 38.2203 1.2
      vertex 39.1674 37.8217 8.7
    endloop
  endfacet
  facet normal 0.909318 0.415265 0.0263862
    outer loop
      vertex 39.3357 37.9299 1.2
      vertex 39.1674 37.8217 8.7
      vertex 39.4953 37.5803 1.2
    endloop
  endfacet
  facet normal 0.755487 0.654632 0.0263858
    outer loop
      vertex 39.0841 38.2203 1.2
      vertex 38.9531 38.0691 8.7
      vertex 39.1674 37.8217 8.7
    endloop
  endfacet
  facet normal 0.540457 0.840958 0.0263859
    outer loop
      vertex 39.0841 38.2203 1.2
      vertex 38.6777 38.2461 8.7
      vertex 38.9531 38.0691 8.7
    endloop
  endfacet
  facet normal 0.989477 0.142261 0.026386
    outer loop
      vertex 39.4953 37.5803 1.2
      vertex 39.3034 37.524 8.7
      vertex 39.35 37.2 8.7
    endloop
  endfacet
  facet normal -0.909316 0.415269 0.026386
    outer loop
      vertex 37.2326 37.8217 8.7
      vertex 36.9047 37.5803 1.2
      vertex 37.0966 37.524 8.7
    endloop
  endfacet
  facet normal -0.989476 0.142272 0.0263861
    outer loop
      vertex 37.0966 37.524 8.7
      vertex 36.9047 37.5803 1.2
      vertex 37.05 37.2 8.7
    endloop
  endfacet
  facet normal 0.989477 0.142263 0.0263859
    outer loop
      vertex 18.4953 6.58034 1.2
      vertex 18.35 6.2 8.7
      vertex 18.55 6.2 1.2
    endloop
  endfacet
  facet normal 0.281634 -0.959159 0.026386
    outer loop
      vertex 17.6777 5.15392 8.7
      vertex 17.3637 5.0617 8.7
      vertex 17.3921 4.86374 1.2
    endloop
  endfacet
  facet normal 0.755483 -0.654637 0.0263863
    outer loop
      vertex 18.1674 5.57826 8.7
      vertex 17.9531 5.33089 8.7
      vertex 18.0841 5.17974 1.2
    endloop
  endfacet
  facet normal -0.281635 0.959159 0.026386
    outer loop
      vertex 17.0079 7.53626 1.2
      vertex 16.6392 7.428 1.2
      vertex 16.7223 7.24608 8.7
    endloop
  endfacet
  facet normal 0 0.999652 0.0263861
    outer loop
      vertex 17.3921 7.53626 1.2
      vertex 17.0363 7.33829 8.7
      vertex 17.3637 7.33829 8.7
    endloop
  endfacet
  facet normal 0 0.999652 0.0263861
    outer loop
      vertex 17.0363 7.33829 8.7
      vertex 17.3921 7.53626 1.2
      vertex 17.0079 7.53626 1.2
    endloop
  endfacet
  facet normal -0.540455 0.840959 0.0263863
    outer loop
      vertex 16.7223 7.24608 8.7
      vertex 16.3159 7.22026 1.2
      vertex 16.4469 7.06911 8.7
    endloop
  endfacet
  facet normal -0.989477 -0.142265 0.026386
    outer loop
      vertex 16.05 6.2 8.7
      vertex 15.85 6.2 1.2
      vertex 15.9047 5.81966 1.2
    endloop
  endfacet
  facet normal 0.989477 -0.142263 0.0263859
    outer loop
      vertex 18.55 6.2 1.2
      vertex 18.35 6.2 8.7
      vertex 18.4953 5.81966 1.2
    endloop
  endfacet
  facet normal -0.755488 0.654631 0.0263859
    outer loop
      vertex 16.3159 7.22026 1.2
      vertex 16.0643 6.92986 1.2
      vertex 16.2326 6.82174 8.7
    endloop
  endfacet
  facet normal 0.281634 0.959159 0.026386
    outer loop
      vertex 17.3921 7.53626 1.2
      vertex 17.3637 7.33829 8.7
      vertex 17.6777 7.24608 8.7
    endloop
  endfacet
  facet normal -0.989477 0.142266 0.026386
    outer loop
      vertex 15.9047 6.58034 1.2
      vertex 15.85 6.2 1.2
      vertex 16.05 6.2 8.7
    endloop
  endfacet
  facet normal 0 0 -1
    outer loop
      vertex 18.4953 5.81966 1.2
      vertex 18.4953 6.58034 1.2
      vertex 18.55 6.2 1.2
    endloop
  endfacet
  facet normal 0 0 -1
    outer loop
      vertex 18.3357 5.47013 1.2
      vertex 18.4953 6.58034 1.2
      vertex 18.4953 5.81966 1.2
    endloop
  endfacet
  facet normal 0 0 -1
    outer loop
      vertex 18.3357 5.47013 1.2
      vertex 18.3357 6.92986 1.2
      vertex 18.4953 6.58034 1.2
    endloop
  endfacet
  facet normal 0 0 -1
    outer loop
      vertex 18.0841 5.17974 1.2
      vertex 18.3357 6.92986 1.2
      vertex 18.3357 5.47013 1.2
    endloop
  endfacet
  facet normal 0 0 -1
    outer loop
      vertex 18.0841 5.17974 1.2
      vertex 18.0841 7.22026 1.2
      vertex 18.3357 6.92986 1.2
    endloop
  endfacet
  facet normal 0 0 -1
    outer loop
      vertex 17.7608 4.972 1.2
      vertex 18.0841 7.22026 1.2
      vertex 18.0841 5.17974 1.2
    endloop
  endfacet
  facet normal 0 0 -1
    outer loop
      vertex 17.7608 4.972 1.2
      vertex 17.7608 7.428 1.2
      vertex 18.0841 7.22026 1.2
    endloop
  endfacet
  facet normal 0 0 -1
    outer loop
      vertex 17.3921 4.86374 1.2
      vertex 17.7608 7.428 1.2
      vertex 17.7608 4.972 1.2
    endloop
  endfacet
  facet normal 0 0 -1
    outer loop
      vertex 17.3921 4.86374 1.2
      vertex 17.3921 7.53626 1.2
      vertex 17.7608 7.428 1.2
    endloop
  endfacet
  facet normal 0 0 -1
    outer loop
      vertex 17.0079 4.86374 1.2
      vertex 17.3921 7.53626 1.2
      vertex 17.3921 4.86374 1.2
    endloop
  endfacet
  facet normal 0 0 -1
    outer loop
      vertex 17.0079 4.86374 1.2
      vertex 17.0079 7.53626 1.2
      vertex 17.3921 7.53626 1.2
    endloop
  endfacet
  facet normal 0 0 -1
    outer loop
      vertex 16.6392 4.972 1.2
      vertex 17.0079 7.53626 1.2
      vertex 17.0079 4.86374 1.2
    endloop
  endfacet
  facet normal 0 0 -1
    outer loop
      vertex 16.6392 4.972 1.2
      vertex 16.6392 7.428 1.2
      vertex 17.0079 7.53626 1.2
    endloop
  endfacet
  facet normal 0 0 -1
    outer loop
      vertex 16.3159 5.17974 1.2
      vertex 16.6392 7.428 1.2
      vertex 16.6392 4.972 1.2
    endloop
  endfacet
  facet normal 0 0 -1
    outer loop
      vertex 16.3159 5.17974 1.2
      vertex 16.3159 7.22026 1.2
      vertex 16.6392 7.428 1.2
    endloop
  endfacet
  facet normal 0 0 -1
    outer loop
      vertex 16.0643 5.47013 1.2
      vertex 16.3159 7.22026 1.2
      vertex 16.3159 5.17974 1.2
    endloop
  endfacet
  facet normal 0 0 -1
    outer loop
      vertex 16.0643 5.47013 1.2
      vertex 16.0643 6.92986 1.2
      vertex 16.3159 7.22026 1.2
    endloop
  endfacet
  facet normal 0 0 -1
    outer loop
      vertex 15.9047 5.81966 1.2
      vertex 16.0643 6.92986 1.2
      vertex 16.0643 5.47013 1.2
    endloop
  endfacet
  facet normal 0 0 -1
    outer loop
      vertex 15.9047 5.81966 1.2
      vertex 15.9047 6.58034 1.2
      vertex 16.0643 6.92986 1.2
    endloop
  endfacet
  facet normal 0 -0 -1
    outer loop
      vertex 15.9047 6.58034 1.2
      vertex 15.9047 5.81966 1.2
      vertex 15.85 6.2 1.2
    endloop
  endfacet
  facet normal -0.540452 -0.840961 0.0263861
    outer loop
      vertex 16.7223 5.15392 8.7
      vertex 16.3159 5.17974 1.2
      vertex 16.6392 4.972 1.2
    endloop
  endfacet
  facet normal -0.909316 -0.415269 0.026386
    outer loop
      vertex 16.0966 5.87601 8.7
      vertex 15.9047 5.81966 1.2
      vertex 16.2326 5.57826 8.7
    endloop
  endfacet
  facet normal -0.281634 -0.959159 0.026386
    outer loop
      vertex 17.0363 5.0617 8.7
      vertex 16.7223 5.15392 8.7
      vertex 17.0079 4.86374 1.2
    endloop
  endfacet
  facet normal 0 -0.999652 0.0263861
    outer loop
      vertex 17.0079 4.86374 1.2
      vertex 17.3637 5.0617 8.7
      vertex 17.0363 5.0617 8.7
    endloop
  endfacet
  facet normal 0 -0.999652 0.0263861
    outer loop
      vertex 17.3637 5.0617 8.7
      vertex 17.0079 4.86374 1.2
      vertex 17.3921 4.86374 1.2
    endloop
  endfacet
  facet normal 0.540452 -0.840961 0.0263861
    outer loop
      vertex 18.0841 5.17974 1.2
      vertex 17.6777 5.15392 8.7
      vertex 17.7608 4.972 1.2
    endloop
  endfacet
  facet normal 0.281635 -0.959159 0.026386
    outer loop
      vertex 17.6777 5.15392 8.7
      vertex 17.3921 4.86374 1.2
      vertex 17.7608 4.972 1.2
    endloop
  endfacet
  facet normal -0.540452 0.840961 0.0263861
    outer loop
      vertex 16.6392 7.428 1.2
      vertex 16.3159 7.22026 1.2
      vertex 16.7223 7.24608 8.7
    endloop
  endfacet
  facet normal 0.540452 0.840961 0.0263861
    outer loop
      vertex 17.7608 7.428 1.2
      vertex 17.6777 7.24608 8.7
      vertex 18.0841 7.22026 1.2
    endloop
  endfacet
  facet normal 0.909316 0.415269 0.026386
    outer loop
      vertex 18.4953 6.58034 1.2
      vertex 18.1674 6.82174 8.7
      vertex 18.3034 6.52399 8.7
    endloop
  endfacet
  facet normal -0.281634 0.959159 0.026386
    outer loop
      vertex 17.0079 7.53626 1.2
      vertex 16.7223 7.24608 8.7
      vertex 17.0363 7.33829 8.7
    endloop
  endfacet
  facet normal -0.755483 0.654637 0.0263863
    outer loop
      vertex 16.3159 7.22026 1.2
      vertex 16.2326 6.82174 8.7
      vertex 16.4469 7.06911 8.7
    endloop
  endfacet
  facet normal 0 0 1
    outer loop
      vertex 18.3034 6.52399 8.7
      vertex 18.3034 5.87601 8.7
      vertex 18.35 6.2 8.7
    endloop
  endfacet
  facet normal 0 0 1
    outer loop
      vertex 18.1674 6.82174 8.7
      vertex 18.3034 5.87601 8.7
      vertex 18.3034 6.52399 8.7
    endloop
  endfacet
  facet normal 0 0 1
    outer loop
      vertex 18.1674 6.82174 8.7
      vertex 18.1674 5.57826 8.7
      vertex 18.3034 5.87601 8.7
    endloop
  endfacet
  facet normal 0 0 1
    outer loop
      vertex 17.9531 7.06911 8.7
      vertex 18.1674 5.57826 8.7
      vertex 18.1674 6.82174 8.7
    endloop
  endfacet
  facet normal 0 0 1
    outer loop
      vertex 17.9531 7.06911 8.7
      vertex 17.9531 5.33089 8.7
      vertex 18.1674 5.57826 8.7
    endloop
  endfacet
  facet normal 0 0 1
    outer loop
      vertex 17.6777 7.24608 8.7
      vertex 17.9531 5.33089 8.7
      vertex 17.9531 7.06911 8.7
    endloop
  endfacet
  facet normal 0 0 1
    outer loop
      vertex 17.6777 7.24608 8.7
      vertex 17.6777 5.15392 8.7
      vertex 17.9531 5.33089 8.7
    endloop
  endfacet
  facet normal 0 0 1
    outer loop
      vertex 17.3637 7.33829 8.7
      vertex 17.6777 5.15392 8.7
      vertex 17.6777 7.24608 8.7
    endloop
  endfacet
  facet normal 0 0 1
    outer loop
      vertex 17.3637 7.33829 8.7
      vertex 17.3637 5.0617 8.7
      vertex 17.6777 5.15392 8.7
    endloop
  endfacet
  facet normal -0 0 1
    outer loop
      vertex 17.0363 7.33829 8.7
      vertex 17.3637 5.0617 8.7
      vertex 17.3637 7.33829 8.7
    endloop
  endfacet
  facet normal 0 0 1
    outer loop
      vertex 17.0363 7.33829 8.7
      vertex 17.0363 5.0617 8.7
      vertex 17.3637 5.0617 8.7
    endloop
  endfacet
  facet normal -0 0 1
    outer loop
      vertex 16.7223 7.24608 8.7
      vertex 17.0363 5.0617 8.7
      vertex 17.0363 7.33829 8.7
    endloop
  endfacet
  facet normal 0 0 1
    outer loop
      vertex 16.7223 7.24608 8.7
      vertex 16.7223 5.15392 8.7
      vertex 17.0363 5.0617 8.7
    endloop
  endfacet
  facet normal -0 0 1
    outer loop
      vertex 16.4469 7.06911 8.7
      vertex 16.7223 5.15392 8.7
      vertex 16.7223 7.24608 8.7
    endloop
  endfacet
  facet normal 0 0 1
    outer loop
      vertex 16.4469 7.06911 8.7
      vertex 16.4469 5.33089 8.7
      vertex 16.7223 5.15392 8.7
    endloop
  endfacet
  facet normal -0 0 1
    outer loop
      vertex 16.2326 6.82174 8.7
      vertex 16.4469 5.33089 8.7
      vertex 16.4469 7.06911 8.7
    endloop
  endfacet
  facet normal 0 0 1
    outer loop
      vertex 16.2326 6.82174 8.7
      vertex 16.2326 5.57826 8.7
      vertex 16.4469 5.33089 8.7
    endloop
  endfacet
  facet normal -0 0 1
    outer loop
      vertex 16.0966 6.52399 8.7
      vertex 16.2326 5.57826 8.7
      vertex 16.2326 6.82174 8.7
    endloop
  endfacet
  facet normal 0 0 1
    outer loop
      vertex 16.0966 6.52399 8.7
      vertex 16.0966 5.87601 8.7
      vertex 16.2326 5.57826 8.7
    endloop
  endfacet
  facet normal 0 -0 1
    outer loop
      vertex 16.0966 5.87601 8.7
      vertex 16.0966 6.52399 8.7
      vertex 16.05 6.2 8.7
    endloop
  endfacet
  facet normal -0.909315 0.415272 0.0263859
    outer loop
      vertex 16.0643 6.92986 1.2
      vertex 15.9047 6.58034 1.2
      vertex 16.2326 6.82174 8.7
    endloop
  endfacet
  facet normal -0.281635 -0.959159 0.026386
    outer loop
      vertex 16.7223 5.15392 8.7
      vertex 16.6392 4.972 1.2
      vertex 17.0079 4.86374 1.2
    endloop
  endfacet
  facet normal -0.755488 -0.654631 0.0263859
    outer loop
      vertex 16.2326 5.57826 8.7
      vertex 16.0643 5.47013 1.2
      vertex 16.3159 5.17974 1.2
    endloop
  endfacet
  facet normal -0.909315 -0.415272 0.0263859
    outer loop
      vertex 16.2326 5.57826 8.7
      vertex 15.9047 5.81966 1.2
      vertex 16.0643 5.47013 1.2
    endloop
  endfacet
  facet normal -0.755483 -0.654637 0.0263863
    outer loop
      vertex 16.4469 5.33089 8.7
      vertex 16.2326 5.57826 8.7
      vertex 16.3159 5.17974 1.2
    endloop
  endfacet
  facet normal -0.540455 -0.840959 0.0263863
    outer loop
      vertex 16.4469 5.33089 8.7
      vertex 16.3159 5.17974 1.2
      vertex 16.7223 5.15392 8.7
    endloop
  endfacet
  facet normal -0.989477 -0.142265 0.026386
    outer loop
      vertex 16.05 6.2 8.7
      vertex 15.9047 5.81966 1.2
      vertex 16.0966 5.87601 8.7
    endloop
  endfacet
  facet normal 0.540455 -0.840959 0.0263863
    outer loop
      vertex 17.9531 5.33089 8.7
      vertex 17.6777 5.15392 8.7
      vertex 18.0841 5.17974 1.2
    endloop
  endfacet
  facet normal 0.909315 -0.415272 0.0263859
    outer loop
      vertex 18.4953 5.81966 1.2
      vertex 18.1674 5.57826 8.7
      vertex 18.3357 5.47013 1.2
    endloop
  endfacet
  facet normal 0.755488 -0.654631 0.0263859
    outer loop
      vertex 18.1674 5.57826 8.7
      vertex 18.0841 5.17974 1.2
      vertex 18.3357 5.47013 1.2
    endloop
  endfacet
  facet normal 0.909316 -0.415269 0.026386
    outer loop
      vertex 18.3034 5.87601 8.7
      vertex 18.1674 5.57826 8.7
      vertex 18.4953 5.81966 1.2
    endloop
  endfacet
  facet normal 0.989477 -0.142265 0.026386
    outer loop
      vertex 18.35 6.2 8.7
      vertex 18.3034 5.87601 8.7
      vertex 18.4953 5.81966 1.2
    endloop
  endfacet
  facet normal 0.281635 0.959159 0.026386
    outer loop
      vertex 17.7608 7.428 1.2
      vertex 17.3921 7.53626 1.2
      vertex 17.6777 7.24608 8.7
    endloop
  endfacet
  facet normal 0.755488 0.654631 0.0263859
    outer loop
      vertex 18.3357 6.92986 1.2
      vertex 18.0841 7.22026 1.2
      vertex 18.1674 6.82174 8.7
    endloop
  endfacet
  facet normal 0.909315 0.415272 0.0263859
    outer loop
      vertex 18.3357 6.92986 1.2
      vertex 18.1674 6.82174 8.7
      vertex 18.4953 6.58034 1.2
    endloop
  endfacet
  facet normal 0.755483 0.654637 0.0263863
    outer loop
      vertex 18.0841 7.22026 1.2
      vertex 17.9531 7.06911 8.7
      vertex 18.1674 6.82174 8.7
    endloop
  endfacet
  facet normal 0.540455 0.840959 0.0263863
    outer loop
      vertex 18.0841 7.22026 1.2
      vertex 17.6777 7.24608 8.7
      vertex 17.9531 7.06911 8.7
    endloop
  endfacet
  facet normal 0.989477 0.142266 0.026386
    outer loop
      vertex 18.4953 6.58034 1.2
      vertex 18.3034 6.52399 8.7
      vertex 18.35 6.2 8.7
    endloop
  endfacet
  facet normal -0.909316 0.415269 0.026386
    outer loop
      vertex 16.2326 6.82174 8.7
      vertex 15.9047 6.58034 1.2
      vertex 16.0966 6.52399 8.7
    endloop
  endfacet
  facet normal -0.989477 0.142266 0.026386
    outer loop
      vertex 16.0966 6.52399 8.7
      vertex 15.9047 6.58034 1.2
      vertex 16.05 6.2 8.7
    endloop
  endfacet
  facet normal 0.989477 0.142263 0.0263862
    outer loop
      vertex 45.4953 5.58034 1.2
      vertex 45.35 5.2 8.7
      vertex 45.55 5.2 1.2
    endloop
  endfacet
  facet normal 0.281634 -0.959159 0.026386
    outer loop
      vertex 44.6777 4.15392 8.7
      vertex 44.3637 4.0617 8.7
      vertex 44.3921 3.86374 1.2
    endloop
  endfacet
  facet normal 0.755486 -0.654633 0.0263859
    outer loop
      vertex 45.1674 4.57826 8.7
      vertex 44.9531 4.33089 8.7
      vertex 45.0841 4.17974 1.2
    endloop
  endfacet
  facet normal -0.281638 0.959158 0.0263859
    outer loop
      vertex 44.0079 6.53626 1.2
      vertex 43.6392 6.428 1.2
      vertex 43.7223 6.24608 8.7
    endloop
  endfacet
  facet normal 0 0.999652 0.0263861
    outer loop
      vertex 44.3921 6.53626 1.2
      vertex 44.0363 6.33829 8.7
      vertex 44.3637 6.33829 8.7
    endloop
  endfacet
  facet normal 0 0.999652 0.0263861
    outer loop
      vertex 44.0363 6.33829 8.7
      vertex 44.3921 6.53626 1.2
      vertex 44.0079 6.53626 1.2
    endloop
  endfacet
  facet normal -0.540458 0.840957 0.0263863
    outer loop
      vertex 43.7223 6.24608 8.7
      vertex 43.3159 6.22026 1.2
      vertex 43.4469 6.06911 8.7
    endloop
  endfacet
  facet normal -0.989476 -0.142273 0.0263861
    outer loop
      vertex 43.05 5.2 8.7
      vertex 42.85 5.2 1.2
      vertex 42.9047 4.81966 1.2
    endloop
  endfacet
  facet normal 0.989477 -0.142263 0.0263862
    outer loop
      vertex 45.55 5.2 1.2
      vertex 45.35 5.2 8.7
      vertex 45.4953 4.81966 1.2
    endloop
  endfacet
  facet normal -0.755488 0.654631 0.0263861
    outer loop
      vertex 43.3159 6.22026 1.2
      vertex 43.0643 5.92986 1.2
      vertex 43.2326 5.82174 8.7
    endloop
  endfacet
  facet normal 0.281634 0.959159 0.026386
    outer loop
      vertex 44.3921 6.53626 1.2
      vertex 44.3637 6.33829 8.7
      vertex 44.6777 6.24608 8.7
    endloop
  endfacet
  facet normal -0.989476 0.142273 0.0263861
    outer loop
      vertex 42.9047 5.58034 1.2
      vertex 42.85 5.2 1.2
      vertex 43.05 5.2 8.7
    endloop
  endfacet
  facet normal 0 0 -1
    outer loop
      vertex 45.4953 4.81966 1.2
      vertex 45.4953 5.58034 1.2
      vertex 45.55 5.2 1.2
    endloop
  endfacet
  facet normal 0 0 -1
    outer loop
      vertex 45.3357 4.47013 1.2
      vertex 45.4953 5.58034 1.2
      vertex 45.4953 4.81966 1.2
    endloop
  endfacet
  facet normal 0 0 -1
    outer loop
      vertex 45.3357 4.47013 1.2
      vertex 45.3357 5.92986 1.2
      vertex 45.4953 5.58034 1.2
    endloop
  endfacet
  facet normal 0 0 -1
    outer loop
      vertex 45.0841 4.17974 1.2
      vertex 45.3357 5.92986 1.2
      vertex 45.3357 4.47013 1.2
    endloop
  endfacet
  facet normal 0 0 -1
    outer loop
      vertex 45.0841 4.17974 1.2
      vertex 45.0841 6.22026 1.2
      vertex 45.3357 5.92986 1.2
    endloop
  endfacet
  facet normal 0 0 -1
    outer loop
      vertex 44.7608 3.972 1.2
      vertex 45.0841 6.22026 1.2
      vertex 45.0841 4.17974 1.2
    endloop
  endfacet
  facet normal 0 0 -1
    outer loop
      vertex 44.7608 3.972 1.2
      vertex 44.7608 6.428 1.2
      vertex 45.0841 6.22026 1.2
    endloop
  endfacet
  facet normal 0 0 -1
    outer loop
      vertex 44.3921 3.86374 1.2
      vertex 44.7608 6.428 1.2
      vertex 44.7608 3.972 1.2
    endloop
  endfacet
  facet normal 0 0 -1
    outer loop
      vertex 44.3921 3.86374 1.2
      vertex 44.3921 6.53626 1.2
      vertex 44.7608 6.428 1.2
    endloop
  endfacet
  facet normal 0 0 -1
    outer loop
      vertex 44.0079 3.86374 1.2
      vertex 44.3921 6.53626 1.2
      vertex 44.3921 3.86374 1.2
    endloop
  endfacet
  facet normal 0 0 -1
    outer loop
      vertex 44.0079 3.86374 1.2
      vertex 44.0079 6.53626 1.2
      vertex 44.3921 6.53626 1.2
    endloop
  endfacet
  facet normal 0 0 -1
    outer loop
      vertex 43.6392 3.972 1.2
      vertex 44.0079 6.53626 1.2
      vertex 44.0079 3.86374 1.2
    endloop
  endfacet
  facet normal 0 0 -1
    outer loop
      vertex 43.6392 3.972 1.2
      vertex 43.6392 6.428 1.2
      vertex 44.0079 6.53626 1.2
    endloop
  endfacet
  facet normal 0 0 -1
    outer loop
      vertex 43.3159 4.17974 1.2
      vertex 43.6392 6.428 1.2
      vertex 43.6392 3.972 1.2
    endloop
  endfacet
  facet normal 0 0 -1
    outer loop
      vertex 43.3159 4.17974 1.2
      vertex 43.3159 6.22026 1.2
      vertex 43.6392 6.428 1.2
    endloop
  endfacet
  facet normal 0 0 -1
    outer loop
      vertex 43.0643 4.47013 1.2
      vertex 43.3159 6.22026 1.2
      vertex 43.3159 4.17974 1.2
    endloop
  endfacet
  facet normal 0 0 -1
    outer loop
      vertex 43.0643 4.47013 1.2
      vertex 43.0643 5.92986 1.2
      vertex 43.3159 6.22026 1.2
    endloop
  endfacet
  facet normal 0 0 -1
    outer loop
      vertex 42.9047 4.81966 1.2
      vertex 43.0643 5.92986 1.2
      vertex 43.0643 4.47013 1.2
    endloop
  endfacet
  facet normal 0 0 -1
    outer loop
      vertex 42.9047 4.81966 1.2
      vertex 42.9047 5.58034 1.2
      vertex 43.0643 5.92986 1.2
    endloop
  endfacet
  facet normal 0 -0 -1
    outer loop
      vertex 42.9047 5.58034 1.2
      vertex 42.9047 4.81966 1.2
      vertex 42.85 5.2 1.2
    endloop
  endfacet
  facet normal -0.540449 -0.840963 0.0263858
    outer loop
      vertex 43.7223 4.15392 8.7
      vertex 43.3159 4.17974 1.2
      vertex 43.6392 3.972 1.2
    endloop
  endfacet
  facet normal -0.909316 -0.415269 0.026386
    outer loop
      vertex 43.0966 4.87601 8.7
      vertex 42.9047 4.81966 1.2
      vertex 43.2326 4.57826 8.7
    endloop
  endfacet
  facet normal -0.281631 -0.95916 0.0263862
    outer loop
      vertex 44.0363 4.0617 8.7
      vertex 43.7223 4.15392 8.7
      vertex 44.0079 3.86374 1.2
    endloop
  endfacet
  facet normal 0 -0.999652 0.0263861
    outer loop
      vertex 44.0079 3.86374 1.2
      vertex 44.3637 4.0617 8.7
      vertex 44.0363 4.0617 8.7
    endloop
  endfacet
  facet normal 0 -0.999652 0.0263861
    outer loop
      vertex 44.3637 4.0617 8.7
      vertex 44.0079 3.86374 1.2
      vertex 44.3921 3.86374 1.2
    endloop
  endfacet
  facet normal 0.540454 -0.84096 0.026386
    outer loop
      vertex 45.0841 4.17974 1.2
      vertex 44.6777 4.15392 8.7
      vertex 44.7608 3.972 1.2
    endloop
  endfacet
  facet normal 0.281635 -0.959159 0.026386
    outer loop
      vertex 44.6777 4.15392 8.7
      vertex 44.3921 3.86374 1.2
      vertex 44.7608 3.972 1.2
    endloop
  endfacet
  facet normal -0.540449 0.840963 0.0263858
    outer loop
      vertex 43.6392 6.428 1.2
      vertex 43.3159 6.22026 1.2
      vertex 43.7223 6.24608 8.7
    endloop
  endfacet
  facet normal 0.540454 0.84096 0.0263861
    outer loop
      vertex 44.7608 6.428 1.2
      vertex 44.6777 6.24608 8.7
      vertex 45.0841 6.22026 1.2
    endloop
  endfacet
  facet normal 0.909316 0.415269 0.026386
    outer loop
      vertex 45.4953 5.58034 1.2
      vertex 45.1674 5.82174 8.7
      vertex 45.3034 5.52399 8.7
    endloop
  endfacet
  facet normal -0.281631 0.95916 0.0263862
    outer loop
      vertex 44.0079 6.53626 1.2
      vertex 43.7223 6.24608 8.7
      vertex 44.0363 6.33829 8.7
    endloop
  endfacet
  facet normal -0.755486 0.654633 0.0263863
    outer loop
      vertex 43.3159 6.22026 1.2
      vertex 43.2326 5.82174 8.7
      vertex 43.4469 6.06911 8.7
    endloop
  endfacet
  facet normal 0 0 1
    outer loop
      vertex 45.3034 5.52399 8.7
      vertex 45.3034 4.87601 8.7
      vertex 45.35 5.2 8.7
    endloop
  endfacet
  facet normal 0 0 1
    outer loop
      vertex 45.1674 5.82174 8.7
      vertex 45.3034 4.87601 8.7
      vertex 45.3034 5.52399 8.7
    endloop
  endfacet
  facet normal 0 0 1
    outer loop
      vertex 45.1674 5.82174 8.7
      vertex 45.1674 4.57826 8.7
      vertex 45.3034 4.87601 8.7
    endloop
  endfacet
  facet normal 0 0 1
    outer loop
      vertex 44.9531 6.06911 8.7
      vertex 45.1674 4.57826 8.7
      vertex 45.1674 5.82174 8.7
    endloop
  endfacet
  facet normal 0 0 1
    outer loop
      vertex 44.9531 6.06911 8.7
      vertex 44.9531 4.33089 8.7
      vertex 45.1674 4.57826 8.7
    endloop
  endfacet
  facet normal 0 0 1
    outer loop
      vertex 44.6777 6.24608 8.7
      vertex 44.9531 4.33089 8.7
      vertex 44.9531 6.06911 8.7
    endloop
  endfacet
  facet normal 0 0 1
    outer loop
      vertex 44.6777 6.24608 8.7
      vertex 44.6777 4.15392 8.7
      vertex 44.9531 4.33089 8.7
    endloop
  endfacet
  facet normal 0 0 1
    outer loop
      vertex 44.3637 6.33829 8.7
      vertex 44.6777 4.15392 8.7
      vertex 44.6777 6.24608 8.7
    endloop
  endfacet
  facet normal 0 0 1
    outer loop
      vertex 44.3637 6.33829 8.7
      vertex 44.3637 4.0617 8.7
      vertex 44.6777 4.15392 8.7
    endloop
  endfacet
  facet normal -0 0 1
    outer loop
      vertex 44.0363 6.33829 8.7
      vertex 44.3637 4.0617 8.7
      vertex 44.3637 6.33829 8.7
    endloop
  endfacet
  facet normal 0 0 1
    outer loop
      vertex 44.0363 6.33829 8.7
      vertex 44.0363 4.0617 8.7
      vertex 44.3637 4.0617 8.7
    endloop
  endfacet
  facet normal -0 0 1
    outer loop
      vertex 43.7223 6.24608 8.7
      vertex 44.0363 4.0617 8.7
      vertex 44.0363 6.33829 8.7
    endloop
  endfacet
  facet normal 0 0 1
    outer loop
      vertex 43.7223 6.24608 8.7
      vertex 43.7223 4.15392 8.7
      vertex 44.0363 4.0617 8.7
    endloop
  endfacet
  facet normal -0 0 1
    outer loop
      vertex 43.4469 6.06911 8.7
      vertex 43.7223 4.15392 8.7
      vertex 43.7223 6.24608 8.7
    endloop
  endfacet
  facet normal 0 0 1
    outer loop
      vertex 43.4469 6.06911 8.7
      vertex 43.4469 4.33089 8.7
      vertex 43.7223 4.15392 8.7
    endloop
  endfacet
  facet normal -0 0 1
    outer loop
      vertex 43.2326 5.82174 8.7
      vertex 43.4469 4.33089 8.7
      vertex 43.4469 6.06911 8.7
    endloop
  endfacet
  facet normal 0 0 1
    outer loop
      vertex 43.2326 5.82174 8.7
      vertex 43.2326 4.57826 8.7
      vertex 43.4469 4.33089 8.7
    endloop
  endfacet
  facet normal -0 0 1
    outer loop
      vertex 43.0966 5.52399 8.7
      vertex 43.2326 4.57826 8.7
      vertex 43.2326 5.82174 8.7
    endloop
  endfacet
  facet normal 0 0 1
    outer loop
      vertex 43.0966 5.52399 8.7
      vertex 43.0966 4.87601 8.7
      vertex 43.2326 4.57826 8.7
    endloop
  endfacet
  facet normal 0 -0 1
    outer loop
      vertex 43.0966 4.87601 8.7
      vertex 43.0966 5.52399 8.7
      vertex 43.05 5.2 8.7
    endloop
  endfacet
  facet normal -0.909316 0.415268 0.0263861
    outer loop
      vertex 43.0643 5.92986 1.2
      vertex 42.9047 5.58034 1.2
      vertex 43.2326 5.82174 8.7
    endloop
  endfacet
  facet normal -0.281638 -0.959158 0.0263858
    outer loop
      vertex 43.7223 4.15392 8.7
      vertex 43.6392 3.972 1.2
      vertex 44.0079 3.86374 1.2
    endloop
  endfacet
  facet normal -0.755488 -0.654631 0.0263861
    outer loop
      vertex 43.2326 4.57826 8.7
      vertex 43.0643 4.47013 1.2
      vertex 43.3159 4.17974 1.2
    endloop
  endfacet
  facet normal -0.909316 -0.415268 0.0263861
    outer loop
      vertex 43.2326 4.57826 8.7
      vertex 42.9047 4.81966 1.2
      vertex 43.0643 4.47013 1.2
    endloop
  endfacet
  facet normal -0.755486 -0.654633 0.0263863
    outer loop
      vertex 43.4469 4.33089 8.7
      vertex 43.2326 4.57826 8.7
      vertex 43.3159 4.17974 1.2
    endloop
  endfacet
  facet normal -0.540458 -0.840957 0.0263863
    outer loop
      vertex 43.4469 4.33089 8.7
      vertex 43.3159 4.17974 1.2
      vertex 43.7223 4.15392 8.7
    endloop
  endfacet
  facet normal -0.989476 -0.142271 0.026386
    outer loop
      vertex 43.05 5.2 8.7
      vertex 42.9047 4.81966 1.2
      vertex 43.0966 4.87601 8.7
    endloop
  endfacet
  facet normal 0.540453 -0.840961 0.026386
    outer loop
      vertex 44.9531 4.33089 8.7
      vertex 44.6777 4.15392 8.7
      vertex 45.0841 4.17974 1.2
    endloop
  endfacet
  facet normal 0.909316 -0.415268 0.0263861
    outer loop
      vertex 45.4953 4.81966 1.2
      vertex 45.1674 4.57826 8.7
      vertex 45.3357 4.47013 1.2
    endloop
  endfacet
  facet normal 0.755483 -0.654636 0.0263861
    outer loop
      vertex 45.1674 4.57826 8.7
      vertex 45.0841 4.17974 1.2
      vertex 45.3357 4.47013 1.2
    endloop
  endfacet
  facet normal 0.909316 -0.415269 0.026386
    outer loop
      vertex 45.3034 4.87601 8.7
      vertex 45.1674 4.57826 8.7
      vertex 45.4953 4.81966 1.2
    endloop
  endfacet
  facet normal 0.989478 -0.14226 0.026386
    outer loop
      vertex 45.35 5.2 8.7
      vertex 45.3034 4.87601 8.7
      vertex 45.4953 4.81966 1.2
    endloop
  endfacet
  facet normal 0.281635 0.959159 0.026386
    outer loop
      vertex 44.7608 6.428 1.2
      vertex 44.3921 6.53626 1.2
      vertex 44.6777 6.24608 8.7
    endloop
  endfacet
  facet normal 0.755483 0.654636 0.0263861
    outer loop
      vertex 45.3357 5.92986 1.2
      vertex 45.0841 6.22026 1.2
      vertex 45.1674 5.82174 8.7
    endloop
  endfacet
  facet normal 0.909316 0.415268 0.0263861
    outer loop
      vertex 45.3357 5.92986 1.2
      vertex 45.1674 5.82174 8.7
      vertex 45.4953 5.58034 1.2
    endloop
  endfacet
  facet normal 0.755486 0.654633 0.0263859
    outer loop
      vertex 45.0841 6.22026 1.2
      vertex 44.9531 6.06911 8.7
      vertex 45.1674 5.82174 8.7
    endloop
  endfacet
  facet normal 0.540453 0.840961 0.026386
    outer loop
      vertex 45.0841 6.22026 1.2
      vertex 44.6777 6.24608 8.7
      vertex 44.9531 6.06911 8.7
    endloop
  endfacet
  facet normal 0.989478 0.14226 0.026386
    outer loop
      vertex 45.4953 5.58034 1.2
      vertex 45.3034 5.52399 8.7
      vertex 45.35 5.2 8.7
    endloop
  endfacet
  facet normal -0.909316 0.415269 0.026386
    outer loop
      vertex 43.2326 5.82174 8.7
      vertex 42.9047 5.58034 1.2
      vertex 43.0966 5.52399 8.7
    endloop
  endfacet
  facet normal -0.989476 0.142272 0.026386
    outer loop
      vertex 43.0966 5.52399 8.7
      vertex 42.9047 5.58034 1.2
      vertex 43.05 5.2 8.7
    endloop
  endfacet
  facet normal 0.989822 0.142313 0
    outer loop
      vertex 32.55 13.2 6.2
      vertex 32.4953 13.5803 1.2
      vertex 32.4953 13.5803 6.2
    endloop
  endfacet
  facet normal 0.989822 0.142313 0
    outer loop
      vertex 32.4953 13.5803 1.2
      vertex 32.55 13.2 6.2
      vertex 32.55 13.2 1.2
    endloop
  endfacet
  facet normal 0 1 -0
    outer loop
      vertex 31.3921 14.5363 1.2
      vertex 31.0079 14.5363 6.2
      vertex 31.3921 14.5363 6.2
    endloop
  endfacet
  facet normal 0 1 0
    outer loop
      vertex 31.0079 14.5363 6.2
      vertex 31.3921 14.5363 1.2
      vertex 31.0079 14.5363 1.2
    endloop
  endfacet
  facet normal 0.755746 0.654864 0
    outer loop
      vertex 32.3357 13.9299 6.2
      vertex 32.0841 14.2203 1.2
      vertex 32.0841 14.2203 6.2
    endloop
  endfacet
  facet normal 0.755746 0.654864 0
    outer loop
      vertex 32.0841 14.2203 1.2
      vertex 32.3357 13.9299 6.2
      vertex 32.3357 13.9299 1.2
    endloop
  endfacet
  facet normal 0.909633 0.415412 0
    outer loop
      vertex 32.4953 13.5803 6.2
      vertex 32.3357 13.9299 1.2
      vertex 32.3357 13.9299 6.2
    endloop
  endfacet
  facet normal 0.909633 0.415412 0
    outer loop
      vertex 32.3357 13.9299 1.2
      vertex 32.4953 13.5803 6.2
      vertex 32.4953 13.5803 1.2
    endloop
  endfacet
  facet normal -0.755751 0.654859 0
    outer loop
      vertex 30.0643 13.9299 1.2
      vertex 30.3159 14.2203 6.2
      vertex 30.3159 14.2203 1.2
    endloop
  endfacet
  facet normal -0.755751 0.654859 0
    outer loop
      vertex 30.3159 14.2203 6.2
      vertex 30.0643 13.9299 1.2
      vertex 30.0643 13.9299 6.2
    endloop
  endfacet
  facet normal 0 0 -1
    outer loop
      vertex 32.4953 12.8197 1.2
      vertex 32.4953 13.5803 1.2
      vertex 32.55 13.2 1.2
    endloop
  endfacet
  facet normal 0 0 -1
    outer loop
      vertex 32.3357 12.4701 1.2
      vertex 32.4953 13.5803 1.2
      vertex 32.4953 12.8197 1.2
    endloop
  endfacet
  facet normal 0 0 -1
    outer loop
      vertex 32.3357 12.4701 1.2
      vertex 32.3357 13.9299 1.2
      vertex 32.4953 13.5803 1.2
    endloop
  endfacet
  facet normal 0 0 -1
    outer loop
      vertex 32.0841 12.1797 1.2
      vertex 32.3357 13.9299 1.2
      vertex 32.3357 12.4701 1.2
    endloop
  endfacet
  facet normal 0 0 -1
    outer loop
      vertex 32.0841 12.1797 1.2
      vertex 32.0841 14.2203 1.2
      vertex 32.3357 13.9299 1.2
    endloop
  endfacet
  facet normal 0 0 -1
    outer loop
      vertex 31.7608 11.972 1.2
      vertex 32.0841 14.2203 1.2
      vertex 32.0841 12.1797 1.2
    endloop
  endfacet
  facet normal 0 0 -1
    outer loop
      vertex 31.7608 11.972 1.2
      vertex 31.7608 14.428 1.2
      vertex 32.0841 14.2203 1.2
    endloop
  endfacet
  facet normal 0 0 -1
    outer loop
      vertex 31.3921 11.8637 1.2
      vertex 31.7608 14.428 1.2
      vertex 31.7608 11.972 1.2
    endloop
  endfacet
  facet normal 0 0 -1
    outer loop
      vertex 31.3921 11.8637 1.2
      vertex 31.3921 14.5363 1.2
      vertex 31.7608 14.428 1.2
    endloop
  endfacet
  facet normal 0 0 -1
    outer loop
      vertex 31.0079 11.8637 1.2
      vertex 31.3921 14.5363 1.2
      vertex 31.3921 11.8637 1.2
    endloop
  endfacet
  facet normal 0 0 -1
    outer loop
      vertex 31.0079 11.8637 1.2
      vertex 31.0079 14.5363 1.2
      vertex 31.3921 14.5363 1.2
    endloop
  endfacet
  facet normal 0 0 -1
    outer loop
      vertex 30.6392 11.972 1.2
      vertex 31.0079 14.5363 1.2
      vertex 31.0079 11.8637 1.2
    endloop
  endfacet
  facet normal 0 0 -1
    outer loop
      vertex 30.6392 11.972 1.2
      vertex 30.6392 14.428 1.2
      vertex 31.0079 14.5363 1.2
    endloop
  endfacet
  facet normal 0 0 -1
    outer loop
      vertex 30.3159 12.1797 1.2
      vertex 30.6392 14.428 1.2
      vertex 30.6392 11.972 1.2
    endloop
  endfacet
  facet normal 0 0 -1
    outer loop
      vertex 30.3159 12.1797 1.2
      vertex 30.3159 14.2203 1.2
      vertex 30.6392 14.428 1.2
    endloop
  endfacet
  facet normal 0 0 -1
    outer loop
      vertex 30.0643 12.4701 1.2
      vertex 30.3159 14.2203 1.2
      vertex 30.3159 12.1797 1.2
    endloop
  endfacet
  facet normal 0 0 -1
    outer loop
      vertex 30.0643 12.4701 1.2
      vertex 30.0643 13.9299 1.2
      vertex 30.3159 14.2203 1.2
    endloop
  endfacet
  facet normal 0 0 -1
    outer loop
      vertex 29.9047 12.8197 1.2
      vertex 30.0643 13.9299 1.2
      vertex 30.0643 12.4701 1.2
    endloop
  endfacet
  facet normal 0 0 -1
    outer loop
      vertex 29.9047 12.8197 1.2
      vertex 29.9047 13.5803 1.2
      vertex 30.0643 13.9299 1.2
    endloop
  endfacet
  facet normal 0 -0 -1
    outer loop
      vertex 29.9047 13.5803 1.2
      vertex 29.9047 12.8197 1.2
      vertex 29.85 13.2 1.2
    endloop
  endfacet
  facet normal -0.54064 0.841254 0
    outer loop
      vertex 30.6392 14.428 1.2
      vertex 30.3159 14.2203 6.2
      vertex 30.6392 14.428 6.2
    endloop
  endfacet
  facet normal -0.54064 0.841254 0
    outer loop
      vertex 30.3159 14.2203 6.2
      vertex 30.6392 14.428 1.2
      vertex 30.3159 14.2203 1.2
    endloop
  endfacet
  facet normal 0.755746 -0.654864 0
    outer loop
      vertex 32.0841 12.1797 6.2
      vertex 32.3357 12.4701 1.2
      vertex 32.3357 12.4701 6.2
    endloop
  endfacet
  facet normal 0.755746 -0.654864 0
    outer loop
      vertex 32.3357 12.4701 1.2
      vertex 32.0841 12.1797 6.2
      vertex 32.0841 12.1797 1.2
    endloop
  endfacet
  facet normal -0.909631 -0.415417 0
    outer loop
      vertex 30.0643 12.4701 1.2
      vertex 29.9047 12.8197 6.2
      vertex 29.9047 12.8197 1.2
    endloop
  endfacet
  facet normal -0.909631 -0.415417 0
    outer loop
      vertex 29.9047 12.8197 6.2
      vertex 30.0643 12.4701 1.2
      vertex 30.0643 12.4701 6.2
    endloop
  endfacet
  facet normal 0.281733 0.959493 -0
    outer loop
      vertex 31.7608 14.428 1.2
      vertex 31.3921 14.5363 6.2
      vertex 31.7608 14.428 6.2
    endloop
  endfacet
  facet normal 0.281733 0.959493 0
    outer loop
      vertex 31.3921 14.5363 6.2
      vertex 31.7608 14.428 1.2
      vertex 31.3921 14.5363 1.2
    endloop
  endfacet
  facet normal 0.540642 0.841253 -0
    outer loop
      vertex 32.0841 14.2203 1.2
      vertex 31.7608 14.428 6.2
      vertex 32.0841 14.2203 6.2
    endloop
  endfacet
  facet normal 0.540642 0.841253 0
    outer loop
      vertex 31.7608 14.428 6.2
      vertex 32.0841 14.2203 1.2
      vertex 31.7608 14.428 1.2
    endloop
  endfacet
  facet normal -0.909631 0.415417 0
    outer loop
      vertex 29.9047 13.5803 1.2
      vertex 30.0643 13.9299 6.2
      vertex 30.0643 13.9299 1.2
    endloop
  endfacet
  facet normal -0.909631 0.415417 0
    outer loop
      vertex 30.0643 13.9299 6.2
      vertex 29.9047 13.5803 1.2
      vertex 29.9047 13.5803 6.2
    endloop
  endfacet
  facet normal -0.989822 0.142313 0
    outer loop
      vertex 29.85 13.2 1.2
      vertex 29.9047 13.5803 6.2
      vertex 29.9047 13.5803 1.2
    endloop
  endfacet
  facet normal -0.989822 0.142313 0
    outer loop
      vertex 29.9047 13.5803 6.2
      vertex 29.85 13.2 1.2
      vertex 29.85 13.2 6.2
    endloop
  endfacet
  facet normal -0.989822 -0.142313 0
    outer loop
      vertex 29.9047 12.8197 1.2
      vertex 29.85 13.2 6.2
      vertex 29.85 13.2 1.2
    endloop
  endfacet
  facet normal -0.989822 -0.142313 0
    outer loop
      vertex 29.85 13.2 6.2
      vertex 29.9047 12.8197 1.2
      vertex 29.9047 12.8197 6.2
    endloop
  endfacet
  facet normal -0.281733 0.959493 0
    outer loop
      vertex 31.0079 14.5363 1.2
      vertex 30.6392 14.428 6.2
      vertex 31.0079 14.5363 6.2
    endloop
  endfacet
  facet normal -0.281733 0.959493 0
    outer loop
      vertex 30.6392 14.428 6.2
      vertex 31.0079 14.5363 1.2
      vertex 30.6392 14.428 1.2
    endloop
  endfacet
  facet normal 0.281733 -0.959493 0
    outer loop
      vertex 31.3921 11.8637 1.2
      vertex 31.7608 11.972 6.2
      vertex 31.3921 11.8637 6.2
    endloop
  endfacet
  facet normal 0.281733 -0.959493 0
    outer loop
      vertex 31.7608 11.972 6.2
      vertex 31.3921 11.8637 1.2
      vertex 31.7608 11.972 1.2
    endloop
  endfacet
  facet normal -0.54064 -0.841254 0
    outer loop
      vertex 30.3159 12.1797 1.2
      vertex 30.6392 11.972 6.2
      vertex 30.3159 12.1797 6.2
    endloop
  endfacet
  facet normal -0.54064 -0.841254 -0
    outer loop
      vertex 30.6392 11.972 6.2
      vertex 30.3159 12.1797 1.2
      vertex 30.6392 11.972 1.2
    endloop
  endfacet
  facet normal 0 -1 0
    outer loop
      vertex 31.0079 11.8637 1.2
      vertex 31.3921 11.8637 6.2
      vertex 31.0079 11.8637 6.2
    endloop
  endfacet
  facet normal 0 -1 -0
    outer loop
      vertex 31.3921 11.8637 6.2
      vertex 31.0079 11.8637 1.2
      vertex 31.3921 11.8637 1.2
    endloop
  endfacet
  facet normal -0.755751 -0.654859 0
    outer loop
      vertex 30.3159 12.1797 1.2
      vertex 30.0643 12.4701 6.2
      vertex 30.0643 12.4701 1.2
    endloop
  endfacet
  facet normal -0.755751 -0.654859 0
    outer loop
      vertex 30.0643 12.4701 6.2
      vertex 30.3159 12.1797 1.2
      vertex 30.3159 12.1797 6.2
    endloop
  endfacet
  facet normal 0 0 1
    outer loop
      vertex 32.4953 13.5803 6.2
      vertex 32.4953 12.8197 6.2
      vertex 32.55 13.2 6.2
    endloop
  endfacet
  facet normal 0 0 1
    outer loop
      vertex 32.3357 13.9299 6.2
      vertex 32.4953 12.8197 6.2
      vertex 32.4953 13.5803 6.2
    endloop
  endfacet
  facet normal 0 0 1
    outer loop
      vertex 32.3357 13.9299 6.2
      vertex 32.3357 12.4701 6.2
      vertex 32.4953 12.8197 6.2
    endloop
  endfacet
  facet normal 0 0 1
    outer loop
      vertex 32.0841 14.2203 6.2
      vertex 32.3357 12.4701 6.2
      vertex 32.3357 13.9299 6.2
    endloop
  endfacet
  facet normal 0 0 1
    outer loop
      vertex 32.0841 14.2203 6.2
      vertex 32.0841 12.1797 6.2
      vertex 32.3357 12.4701 6.2
    endloop
  endfacet
  facet normal 0 0 1
    outer loop
      vertex 31.7608 14.428 6.2
      vertex 32.0841 12.1797 6.2
      vertex 32.0841 14.2203 6.2
    endloop
  endfacet
  facet normal 0 0 1
    outer loop
      vertex 31.7608 14.428 6.2
      vertex 31.7608 11.972 6.2
      vertex 32.0841 12.1797 6.2
    endloop
  endfacet
  facet normal 0 0 1
    outer loop
      vertex 31.3921 14.5363 6.2
      vertex 31.7608 11.972 6.2
      vertex 31.7608 14.428 6.2
    endloop
  endfacet
  facet normal 0 0 1
    outer loop
      vertex 31.3921 14.5363 6.2
      vertex 31.3921 11.8637 6.2
      vertex 31.7608 11.972 6.2
    endloop
  endfacet
  facet normal -0 0 1
    outer loop
      vertex 31.0079 14.5363 6.2
      vertex 31.3921 11.8637 6.2
      vertex 31.3921 14.5363 6.2
    endloop
  endfacet
  facet normal 0 0 1
    outer loop
      vertex 31.0079 14.5363 6.2
      vertex 31.0079 11.8637 6.2
      vertex 31.3921 11.8637 6.2
    endloop
  endfacet
  facet normal -0 0 1
    outer loop
      vertex 30.6392 14.428 6.2
      vertex 31.0079 11.8637 6.2
      vertex 31.0079 14.5363 6.2
    endloop
  endfacet
  facet normal 0 0 1
    outer loop
      vertex 30.6392 14.428 6.2
      vertex 30.6392 11.972 6.2
      vertex 31.0079 11.8637 6.2
    endloop
  endfacet
  facet normal -0 0 1
    outer loop
      vertex 30.3159 14.2203 6.2
      vertex 30.6392 11.972 6.2
      vertex 30.6392 14.428 6.2
    endloop
  endfacet
  facet normal 0 0 1
    outer loop
      vertex 30.3159 14.2203 6.2
      vertex 30.3159 12.1797 6.2
      vertex 30.6392 11.972 6.2
    endloop
  endfacet
  facet normal -0 0 1
    outer loop
      vertex 30.0643 13.9299 6.2
      vertex 30.3159 12.1797 6.2
      vertex 30.3159 14.2203 6.2
    endloop
  endfacet
  facet normal 0 0 1
    outer loop
      vertex 30.0643 13.9299 6.2
      vertex 30.0643 12.4701 6.2
      vertex 30.3159 12.1797 6.2
    endloop
  endfacet
  facet normal -0 0 1
    outer loop
      vertex 29.9047 13.5803 6.2
      vertex 30.0643 12.4701 6.2
      vertex 30.0643 13.9299 6.2
    endloop
  endfacet
  facet normal 0 0 1
    outer loop
      vertex 29.9047 13.5803 6.2
      vertex 29.9047 12.8197 6.2
      vertex 30.0643 12.4701 6.2
    endloop
  endfacet
  facet normal 0 -0 1
    outer loop
      vertex 29.9047 12.8197 6.2
      vertex 29.9047 13.5803 6.2
      vertex 29.85 13.2 6.2
    endloop
  endfacet
  facet normal 0.909633 -0.415412 0
    outer loop
      vertex 32.3357 12.4701 6.2
      vertex 32.4953 12.8197 1.2
      vertex 32.4953 12.8197 6.2
    endloop
  endfacet
  facet normal 0.909633 -0.415412 0
    outer loop
      vertex 32.4953 12.8197 1.2
      vertex 32.3357 12.4701 6.2
      vertex 32.3357 12.4701 1.2
    endloop
  endfacet
  facet normal 0.540642 -0.841253 0
    outer loop
      vertex 31.7608 11.972 1.2
      vertex 32.0841 12.1797 6.2
      vertex 31.7608 11.972 6.2
    endloop
  endfacet
  facet normal 0.540642 -0.841253 0
    outer loop
      vertex 32.0841 12.1797 6.2
      vertex 31.7608 11.972 1.2
      vertex 32.0841 12.1797 1.2
    endloop
  endfacet
  facet normal -0.281733 -0.959493 0
    outer loop
      vertex 30.6392 11.972 1.2
      vertex 31.0079 11.8637 6.2
      vertex 30.6392 11.972 6.2
    endloop
  endfacet
  facet normal -0.281733 -0.959493 -0
    outer loop
      vertex 31.0079 11.8637 6.2
      vertex 30.6392 11.972 1.2
      vertex 31.0079 11.8637 1.2
    endloop
  endfacet
  facet normal 0.989822 -0.142313 0
    outer loop
      vertex 32.4953 12.8197 6.2
      vertex 32.55 13.2 1.2
      vertex 32.55 13.2 6.2
    endloop
  endfacet
  facet normal 0.989822 -0.142313 0
    outer loop
      vertex 32.55 13.2 1.2
      vertex 32.4953 12.8197 6.2
      vertex 32.4953 12.8197 1.2
    endloop
  endfacet
  facet normal 0.989821 0.142315 0
    outer loop
      vertex 7.55 24.2 6.2
      vertex 7.49531 24.5803 1.2
      vertex 7.49531 24.5803 6.2
    endloop
  endfacet
  facet normal 0.989821 0.142315 0
    outer loop
      vertex 7.49531 24.5803 1.2
      vertex 7.55 24.2 6.2
      vertex 7.55 24.2 1.2
    endloop
  endfacet
  facet normal 0 1 -0
    outer loop
      vertex 6.39212 25.5363 1.2
      vertex 6.00787 25.5363 6.2
      vertex 6.39212 25.5363 6.2
    endloop
  endfacet
  facet normal 0 1 0
    outer loop
      vertex 6.00787 25.5363 6.2
      vertex 6.39212 25.5363 1.2
      vertex 6.00787 25.5363 1.2
    endloop
  endfacet
  facet normal 0.755751 0.654859 0
    outer loop
      vertex 7.33569 24.9299 6.2
      vertex 7.08406 25.2203 1.2
      vertex 7.08406 25.2203 6.2
    endloop
  endfacet
  facet normal 0.755751 0.654859 0
    outer loop
      vertex 7.08406 25.2203 1.2
      vertex 7.33569 24.9299 6.2
      vertex 7.33569 24.9299 1.2
    endloop
  endfacet
  facet normal 0.909632 0.415415 0
    outer loop
      vertex 7.49531 24.5803 6.2
      vertex 7.33569 24.9299 1.2
      vertex 7.33569 24.9299 6.2
    endloop
  endfacet
  facet normal 0.909632 0.415415 0
    outer loop
      vertex 7.33569 24.9299 1.2
      vertex 7.49531 24.5803 6.2
      vertex 7.49531 24.5803 1.2
    endloop
  endfacet
  facet normal -0.755751 0.654859 0
    outer loop
      vertex 5.06431 24.9299 1.2
      vertex 5.31594 25.2203 6.2
      vertex 5.31594 25.2203 1.2
    endloop
  endfacet
  facet normal -0.755751 0.654859 0
    outer loop
      vertex 5.31594 25.2203 6.2
      vertex 5.06431 24.9299 1.2
      vertex 5.06431 24.9299 6.2
    endloop
  endfacet
  facet normal 0 0 -1
    outer loop
      vertex 7.49531 23.8197 1.2
      vertex 7.49531 24.5803 1.2
      vertex 7.55 24.2 1.2
    endloop
  endfacet
  facet normal 0 0 -1
    outer loop
      vertex 7.33569 23.4701 1.2
      vertex 7.49531 24.5803 1.2
      vertex 7.49531 23.8197 1.2
    endloop
  endfacet
  facet normal 0 0 -1
    outer loop
      vertex 7.33569 23.4701 1.2
      vertex 7.33569 24.9299 1.2
      vertex 7.49531 24.5803 1.2
    endloop
  endfacet
  facet normal 0 0 -1
    outer loop
      vertex 7.08406 23.1797 1.2
      vertex 7.33569 24.9299 1.2
      vertex 7.33569 23.4701 1.2
    endloop
  endfacet
  facet normal 0 0 -1
    outer loop
      vertex 7.08406 23.1797 1.2
      vertex 7.08406 25.2203 1.2
      vertex 7.33569 24.9299 1.2
    endloop
  endfacet
  facet normal 0 0 -1
    outer loop
      vertex 6.76081 22.972 1.2
      vertex 7.08406 25.2203 1.2
      vertex 7.08406 23.1797 1.2
    endloop
  endfacet
  facet normal 0 0 -1
    outer loop
      vertex 6.76081 22.972 1.2
      vertex 6.76081 25.428 1.2
      vertex 7.08406 25.2203 1.2
    endloop
  endfacet
  facet normal 0 0 -1
    outer loop
      vertex 6.39212 22.8637 1.2
      vertex 6.76081 25.428 1.2
      vertex 6.76081 22.972 1.2
    endloop
  endfacet
  facet normal 0 0 -1
    outer loop
      vertex 6.39212 22.8637 1.2
      vertex 6.39212 25.5363 1.2
      vertex 6.76081 25.428 1.2
    endloop
  endfacet
  facet normal 0 0 -1
    outer loop
      vertex 6.00787 22.8637 1.2
      vertex 6.39212 25.5363 1.2
      vertex 6.39212 22.8637 1.2
    endloop
  endfacet
  facet normal 0 0 -1
    outer loop
      vertex 6.00787 22.8637 1.2
      vertex 6.00787 25.5363 1.2
      vertex 6.39212 25.5363 1.2
    endloop
  endfacet
  facet normal 0 0 -1
    outer loop
      vertex 5.63919 22.972 1.2
      vertex 6.00787 25.5363 1.2
      vertex 6.00787 22.8637 1.2
    endloop
  endfacet
  facet normal 0 0 -1
    outer loop
      vertex 5.63919 22.972 1.2
      vertex 5.63919 25.428 1.2
      vertex 6.00787 25.5363 1.2
    endloop
  endfacet
  facet normal 0 0 -1
    outer loop
      vertex 5.31594 23.1797 1.2
      vertex 5.63919 25.428 1.2
      vertex 5.63919 22.972 1.2
    endloop
  endfacet
  facet normal 0 0 -1
    outer loop
      vertex 5.31594 23.1797 1.2
      vertex 5.31594 25.2203 1.2
      vertex 5.63919 25.428 1.2
    endloop
  endfacet
  facet normal 0 0 -1
    outer loop
      vertex 5.06431 23.4701 1.2
      vertex 5.31594 25.2203 1.2
      vertex 5.31594 23.1797 1.2
    endloop
  endfacet
  facet normal 0 0 -1
    outer loop
      vertex 5.06431 23.4701 1.2
      vertex 5.06431 24.9299 1.2
      vertex 5.31594 25.2203 1.2
    endloop
  endfacet
  facet normal 0 0 -1
    outer loop
      vertex 4.90468 23.8197 1.2
      vertex 5.06431 24.9299 1.2
      vertex 5.06431 23.4701 1.2
    endloop
  endfacet
  facet normal 0 0 -1
    outer loop
      vertex 4.90468 23.8197 1.2
      vertex 4.90468 24.5803 1.2
      vertex 5.06431 24.9299 1.2
    endloop
  endfacet
  facet normal 0 -0 -1
    outer loop
      vertex 4.90468 24.5803 1.2
      vertex 4.90468 23.8197 1.2
      vertex 4.85 24.2 1.2
    endloop
  endfacet
  facet normal -0.54064 0.841254 0
    outer loop
      vertex 5.63919 25.428 1.2
      vertex 5.31594 25.2203 6.2
      vertex 5.63919 25.428 6.2
    endloop
  endfacet
  facet normal -0.54064 0.841254 0
    outer loop
      vertex 5.31594 25.2203 6.2
      vertex 5.63919 25.428 1.2
      vertex 5.31594 25.2203 1.2
    endloop
  endfacet
  facet normal 0.755751 -0.654859 0
    outer loop
      vertex 7.08406 23.1797 6.2
      vertex 7.33569 23.4701 1.2
      vertex 7.33569 23.4701 6.2
    endloop
  endfacet
  facet normal 0.755751 -0.654859 0
    outer loop
      vertex 7.33569 23.4701 1.2
      vertex 7.08406 23.1797 6.2
      vertex 7.08406 23.1797 1.2
    endloop
  endfacet
  facet normal -0.909632 -0.415415 0
    outer loop
      vertex 5.06431 23.4701 1.2
      vertex 4.90468 23.8197 6.2
      vertex 4.90468 23.8197 1.2
    endloop
  endfacet
  facet normal -0.909632 -0.415415 0
    outer loop
      vertex 4.90468 23.8197 6.2
      vertex 5.06431 23.4701 1.2
      vertex 5.06431 23.4701 6.2
    endloop
  endfacet
  facet normal 0.281731 0.959493 -0
    outer loop
      vertex 6.76081 25.428 1.2
      vertex 6.39212 25.5363 6.2
      vertex 6.76081 25.428 6.2
    endloop
  endfacet
  facet normal 0.281731 0.959493 0
    outer loop
      vertex 6.39212 25.5363 6.2
      vertex 6.76081 25.428 1.2
      vertex 6.39212 25.5363 1.2
    endloop
  endfacet
  facet normal 0.54064 0.841254 -0
    outer loop
      vertex 7.08406 25.2203 1.2
      vertex 6.76081 25.428 6.2
      vertex 7.08406 25.2203 6.2
    endloop
  endfacet
  facet normal 0.54064 0.841254 0
    outer loop
      vertex 6.76081 25.428 6.2
      vertex 7.08406 25.2203 1.2
      vertex 6.76081 25.428 1.2
    endloop
  endfacet
  facet normal -0.909632 0.415415 0
    outer loop
      vertex 4.90468 24.5803 1.2
      vertex 5.06431 24.9299 6.2
      vertex 5.06431 24.9299 1.2
    endloop
  endfacet
  facet normal -0.909632 0.415415 0
    outer loop
      vertex 5.06431 24.9299 6.2
      vertex 4.90468 24.5803 1.2
      vertex 4.90468 24.5803 6.2
    endloop
  endfacet
  facet normal -0.989821 0.142315 0
    outer loop
      vertex 4.85 24.2 1.2
      vertex 4.90468 24.5803 6.2
      vertex 4.90468 24.5803 1.2
    endloop
  endfacet
  facet normal -0.989821 0.142315 0
    outer loop
      vertex 4.90468 24.5803 6.2
      vertex 4.85 24.2 1.2
      vertex 4.85 24.2 6.2
    endloop
  endfacet
  facet normal -0.989821 -0.142315 0
    outer loop
      vertex 4.90468 23.8197 1.2
      vertex 4.85 24.2 6.2
      vertex 4.85 24.2 1.2
    endloop
  endfacet
  facet normal -0.989821 -0.142315 0
    outer loop
      vertex 4.85 24.2 6.2
      vertex 4.90468 23.8197 1.2
      vertex 4.90468 23.8197 6.2
    endloop
  endfacet
  facet normal -0.281731 0.959493 0
    outer loop
      vertex 6.00787 25.5363 1.2
      vertex 5.63919 25.428 6.2
      vertex 6.00787 25.5363 6.2
    endloop
  endfacet
  facet normal -0.281731 0.959493 0
    outer loop
      vertex 5.63919 25.428 6.2
      vertex 6.00787 25.5363 1.2
      vertex 5.63919 25.428 1.2
    endloop
  endfacet
  facet normal 0.281731 -0.959493 0
    outer loop
      vertex 6.39212 22.8637 1.2
      vertex 6.76081 22.972 6.2
      vertex 6.39212 22.8637 6.2
    endloop
  endfacet
  facet normal 0.281731 -0.959493 0
    outer loop
      vertex 6.76081 22.972 6.2
      vertex 6.39212 22.8637 1.2
      vertex 6.76081 22.972 1.2
    endloop
  endfacet
  facet normal -0.54064 -0.841254 0
    outer loop
      vertex 5.31594 23.1797 1.2
      vertex 5.63919 22.972 6.2
      vertex 5.31594 23.1797 6.2
    endloop
  endfacet
  facet normal -0.54064 -0.841254 -0
    outer loop
      vertex 5.63919 22.972 6.2
      vertex 5.31594 23.1797 1.2
      vertex 5.63919 22.972 1.2
    endloop
  endfacet
  facet normal 0 -1 0
    outer loop
      vertex 6.00787 22.8637 1.2
      vertex 6.39212 22.8637 6.2
      vertex 6.00787 22.8637 6.2
    endloop
  endfacet
  facet normal 0 -1 -0
    outer loop
      vertex 6.39212 22.8637 6.2
      vertex 6.00787 22.8637 1.2
      vertex 6.39212 22.8637 1.2
    endloop
  endfacet
  facet normal -0.755751 -0.654859 0
    outer loop
      vertex 5.31594 23.1797 1.2
      vertex 5.06431 23.4701 6.2
      vertex 5.06431 23.4701 1.2
    endloop
  endfacet
  facet normal -0.755751 -0.654859 0
    outer loop
      vertex 5.06431 23.4701 6.2
      vertex 5.31594 23.1797 1.2
      vertex 5.31594 23.1797 6.2
    endloop
  endfacet
  facet normal 0 0 1
    outer loop
      vertex 7.49531 24.5803 6.2
      vertex 7.49531 23.8197 6.2
      vertex 7.55 24.2 6.2
    endloop
  endfacet
  facet normal 0 0 1
    outer loop
      vertex 7.33569 24.9299 6.2
      vertex 7.49531 23.8197 6.2
      vertex 7.49531 24.5803 6.2
    endloop
  endfacet
  facet normal 0 0 1
    outer loop
      vertex 7.33569 24.9299 6.2
      vertex 7.33569 23.4701 6.2
      vertex 7.49531 23.8197 6.2
    endloop
  endfacet
  facet normal 0 0 1
    outer loop
      vertex 7.08406 25.2203 6.2
      vertex 7.33569 23.4701 6.2
      vertex 7.33569 24.9299 6.2
    endloop
  endfacet
  facet normal 0 0 1
    outer loop
      vertex 7.08406 25.2203 6.2
      vertex 7.08406 23.1797 6.2
      vertex 7.33569 23.4701 6.2
    endloop
  endfacet
  facet normal 0 0 1
    outer loop
      vertex 6.76081 25.428 6.2
      vertex 7.08406 23.1797 6.2
      vertex 7.08406 25.2203 6.2
    endloop
  endfacet
  facet normal 0 0 1
    outer loop
      vertex 6.76081 25.428 6.2
      vertex 6.76081 22.972 6.2
      vertex 7.08406 23.1797 6.2
    endloop
  endfacet
  facet normal 0 0 1
    outer loop
      vertex 6.39212 25.5363 6.2
      vertex 6.76081 22.972 6.2
      vertex 6.76081 25.428 6.2
    endloop
  endfacet
  facet normal 0 0 1
    outer loop
      vertex 6.39212 25.5363 6.2
      vertex 6.39212 22.8637 6.2
      vertex 6.76081 22.972 6.2
    endloop
  endfacet
  facet normal -0 0 1
    outer loop
      vertex 6.00787 25.5363 6.2
      vertex 6.39212 22.8637 6.2
      vertex 6.39212 25.5363 6.2
    endloop
  endfacet
  facet normal 0 0 1
    outer loop
      vertex 6.00787 25.5363 6.2
      vertex 6.00787 22.8637 6.2
      vertex 6.39212 22.8637 6.2
    endloop
  endfacet
  facet normal -0 0 1
    outer loop
      vertex 5.63919 25.428 6.2
      vertex 6.00787 22.8637 6.2
      vertex 6.00787 25.5363 6.2
    endloop
  endfacet
  facet normal 0 0 1
    outer loop
      vertex 5.63919 25.428 6.2
      vertex 5.63919 22.972 6.2
      vertex 6.00787 22.8637 6.2
    endloop
  endfacet
  facet normal -0 0 1
    outer loop
      vertex 5.31594 25.2203 6.2
      vertex 5.63919 22.972 6.2
      vertex 5.63919 25.428 6.2
    endloop
  endfacet
  facet normal 0 0 1
    outer loop
      vertex 5.31594 25.2203 6.2
      vertex 5.31594 23.1797 6.2
      vertex 5.63919 22.972 6.2
    endloop
  endfacet
  facet normal -0 0 1
    outer loop
      vertex 5.06431 24.9299 6.2
      vertex 5.31594 23.1797 6.2
      vertex 5.31594 25.2203 6.2
    endloop
  endfacet
  facet normal 0 0 1
    outer loop
      vertex 5.06431 24.9299 6.2
      vertex 5.06431 23.4701 6.2
      vertex 5.31594 23.1797 6.2
    endloop
  endfacet
  facet normal -0 0 1
    outer loop
      vertex 4.90468 24.5803 6.2
      vertex 5.06431 23.4701 6.2
      vertex 5.06431 24.9299 6.2
    endloop
  endfacet
  facet normal 0 0 1
    outer loop
      vertex 4.90468 24.5803 6.2
      vertex 4.90468 23.8197 6.2
      vertex 5.06431 23.4701 6.2
    endloop
  endfacet
  facet normal 0 -0 1
    outer loop
      vertex 4.90468 23.8197 6.2
      vertex 4.90468 24.5803 6.2
      vertex 4.85 24.2 6.2
    endloop
  endfacet
  facet normal 0.909632 -0.415415 0
    outer loop
      vertex 7.33569 23.4701 6.2
      vertex 7.49531 23.8197 1.2
      vertex 7.49531 23.8197 6.2
    endloop
  endfacet
  facet normal 0.909632 -0.415415 0
    outer loop
      vertex 7.49531 23.8197 1.2
      vertex 7.33569 23.4701 6.2
      vertex 7.33569 23.4701 1.2
    endloop
  endfacet
  facet normal 0.54064 -0.841254 0
    outer loop
      vertex 6.76081 22.972 1.2
      vertex 7.08406 23.1797 6.2
      vertex 6.76081 22.972 6.2
    endloop
  endfacet
  facet normal 0.54064 -0.841254 0
    outer loop
      vertex 7.08406 23.1797 6.2
      vertex 6.76081 22.972 1.2
      vertex 7.08406 23.1797 1.2
    endloop
  endfacet
  facet normal -0.281731 -0.959493 0
    outer loop
      vertex 5.63919 22.972 1.2
      vertex 6.00787 22.8637 6.2
      vertex 5.63919 22.972 6.2
    endloop
  endfacet
  facet normal -0.281731 -0.959493 -0
    outer loop
      vertex 6.00787 22.8637 6.2
      vertex 5.63919 22.972 1.2
      vertex 6.00787 22.8637 1.2
    endloop
  endfacet
  facet normal 0.989821 -0.142315 0
    outer loop
      vertex 7.49531 23.8197 6.2
      vertex 7.55 24.2 1.2
      vertex 7.55 24.2 6.2
    endloop
  endfacet
  facet normal 0.989821 -0.142315 0
    outer loop
      vertex 7.55 24.2 1.2
      vertex 7.49531 23.8197 6.2
      vertex 7.49531 23.8197 1.2
    endloop
  endfacet
endsolid OpenSCAD_Model
